<?xml version="1.0" encoding="iso-8859-1"?>
<!-- Generator: Adobe Illustrator 18.1.1, SVG Export Plug-In . SVG Version: 6.00 Build 0)  -->
<svg version="1.1" id="Capa_1" xmlns="http://www.w3.org/2000/svg" xmlns:xlink="http://www.w3.org/1999/xlink" x="0px" y="0px"
	 viewBox="0 0 290.003 290.003" style="enable-background:new 0 0 290.003 290.003;" xml:space="preserve">
<g>
	<path id="path35963" d="M87.728,0c-9.735,0-17.727,7.996-17.727,17.73v122.273h-25c-2.762,0.001-5,2.241-4.999,5.002
		c0.001,1.325,0.527,2.596,1.463,3.533l78.535,78.535v57.93c0.001,2.762,2.24,5,5.001,5c1.081,0,2.133-0.351,2.999-1l40-30
		c1.259-0.944,2-2.426,2-4v-27.93l78.535-78.535c1.952-1.953,1.951-5.12-0.002-7.072c-0.937-0.937-2.208-1.463-3.533-1.463h-25
		V49.549c0-1.262-0.477-2.477-1.336-3.402L177.302,1.6c-0.946-1.019-2.273-1.599-3.664-1.6H87.728z M87.728,10h77.729v39.547
		c0,2.761,2.239,5,5,5h39.545v85.457h-130V17.73C80.002,13.363,83.362,10,87.728,10z M175.457,14.307l28.078,30.24h-28.078V14.307z
		 M87.728,17.502c-1.381,0-2.5,1.119-2.5,2.5v47.727c-0.02,1.381,1.084,2.516,2.465,2.535c1.381,0.02,2.516-1.084,2.535-2.465
		c0-0.024,0-0.047,0-0.071V22.502h19.773c1.381,0.02,2.516-1.084,2.535-2.465c0.02-1.381-1.084-2.516-2.465-2.535
		c-0.024,0-0.047,0-0.071,0H87.728z M113.183,91.594c-1.381-0.02-2.516,1.084-2.535,2.465c-0.02,1.381,1.084,2.516,2.465,2.535
		c0.024,0,0.047,0,0.071,0h63.637c1.381,0.02,2.516-1.084,2.535-2.465c0.02-1.381-1.084-2.516-2.465-2.535c-0.024,0-0.047,0-0.071,0
		H113.183z M113.183,115.41c-1.381-0.02-2.516,1.084-2.535,2.465c-0.02,1.381,1.084,2.516,2.465,2.535c0.024,0,0.047,0,0.071,0
		h63.637c1.381,0.02,2.516-1.084,2.535-2.465c0.02-1.381-1.084-2.516-2.465-2.535c-0.024,0-0.047,0-0.071,0H113.183z
		 M57.074,150.004h175.855l-71.463,71.463c-0.938,0.938-1.465,2.21-1.465,3.537v27.5l-30,22.5v-50c0-1.327-0.527-2.599-1.465-3.537
		L57.074,150.004z"/>
</g>
<g>
</g>
<g>
</g>
<g>
</g>
<g>
</g>
<g>
</g>
<g>
</g>
<g>
</g>
<g>
</g>
<g>
</g>
<g>
</g>
<g>
</g>
<g>
</g>
<g>
</g>
<g>
</g>
<g>
</g>
</svg>
