<?xml version="1.0" encoding="utf-8"?>
<!-- Generator: Adobe Illustrator 19.2.1, SVG Export Plug-In . SVG Version: 6.00 Build 0)  -->
<svg version="1.1" id="layer" xmlns="http://www.w3.org/2000/svg" xmlns:xlink="http://www.w3.org/1999/xlink" x="0px" y="0px"
	 viewBox="0 0 652 652" style="enable-background:new 0 0 652 652;" xml:space="preserve">
<style type="text/css">
	.st0{fill:#181716;}
	.st1{fill:#004684;}
</style>
<g>
	<path class="st0" d="M620,298.5c-1.8-0.3-4-0.4-6.7-0.4c-8.8,0-17.2,1.8-22.9,4.1v56.1h11.9v-49c2.3-1,5.9-1.5,9.3-1.5
		c2.2,0,4.3,0.2,6,0.7L620,298.5z M575.9,299.3h-12.1v59.1h12.1V299.3z M577,281.8c0-3.7-3.2-6.8-7.1-6.8c-3.9,0-7.1,3.1-7.1,6.8
		s3.2,6.8,7.1,6.8C573.9,288.5,577,285.5,577,281.8 M538.1,349.4c-1.8,0.9-6.4,1.5-10.2,1.5c-9.1,0-13.9-3.8-13.9-10.1
		c0-10.5,12-11.5,24.1-12.2V349.4z M549.5,355.4v-37.2c0-14.6-8.5-20.1-22.7-20.1c-7.9,0-15.9,2.1-20.6,4.1l3.1,8.2
		c3.9-1.9,10.7-3.6,16.3-3.6c7.6,0,12.5,2.6,12.5,10.1v3.7c-17.9,1-35.4,3.9-35.4,20.4c0,11.6,8.5,18.5,25.5,18.5
		C536.6,359.5,545.2,357.7,549.5,355.4 M490.2,358.3v-41.6c0-11.4-8-18.5-19.7-18.5c-8.7,0-15.4,3.6-19.1,7.2
		c-3.1-3.9-9.5-7.2-18.5-7.2c-7.2,0-14.1,1.7-19.6,4v56.1h6.5v-52.4c3.4-1.4,8-2.4,13.3-2.4c9.1,0,15.6,4.5,15.6,11.7v43.1h6.5
		v-48.9c3.2-3.7,8.2-5.9,14.6-5.9c8.1,0,14.2,4.9,14.2,13.5v41.3H490.2z M393.2,322.2l-35.6,5.2c0.3-14.5,7.4-24,19.1-24
		C386.5,303.3,393.1,309.4,393.2,322.2 M399.5,322.6c0-15.6-9.1-24.4-22.8-24.4c-15.5,0-25,12.4-25,30.6c0,20.1,10.6,30.7,27.5,30.7
		c7.4,0,14.5-1.8,18.4-4.1l-2.2-5c-3.7,2.2-10.1,3.7-16,3.7c-12.5,0-20.6-7.3-21.5-21.8l41.4-6.1
		C399.5,324.8,399.5,323.7,399.5,322.6 M344.1,358.2v-5.6c-0.9,0.3-2.3,0.5-3.6,0.5c-5.3,0-9.7-2.7-9.7-9.3v-39.7h13.4v-4.9h-13.4
		v-17.1l-6.3,2.4v14.7h-9.2v4.9h9.2v39.9c0,10,6.3,14.8,15,14.8C341.6,358.9,343.1,358.7,344.1,358.2 M305.9,343.2
		c0-10.7-8-14.1-17.2-17.6c-7.2-2.7-12.6-5-12.6-12.2c0-5.5,4.6-10,12.6-10c4.8,0,9.9,1.8,12.6,3.6l2.5-4.8c-3.7-2.3-9.3-4-15.6-4
		c-11.9,0-18.7,6.7-18.7,15.2c0,10.2,7.5,13.8,16.3,17.1c7.6,2.8,13.4,5.5,13.4,12.6c0,6.7-5.8,11-14.5,11c-4.8,0-11-1.8-14.2-3.7
		l-2.5,5c4.2,2.4,11,4.1,16.9,4.1C297.9,359.4,305.9,353,305.9,343.2 M260.3,299.3h-7L237.1,345c-1.3,3.6-2.2,7.9-2.2,7.9h-0.2
		c0,0-0.8-4.3-2.1-7.9l-16.2-45.7h-7l22.2,59.1l-8.9,23.6h6.7L260.3,299.3z M200.1,343.2c0-10.7-8-14.1-17.2-17.6
		c-7.2-2.7-12.6-5-12.6-12.2c0-5.5,4.6-10,12.6-10c4.8,0,9.9,1.8,12.6,3.6l2.5-4.8c-3.7-2.3-9.3-4-15.6-4c-12,0-18.7,6.7-18.7,15.2
		c0,10.2,7.6,13.8,16.3,17.1c7.7,2.8,13.4,5.5,13.4,12.6c0,6.7-5.8,11-14.5,11c-4.8,0-11-1.8-14.3-3.7l-2.5,5
		c4.2,2.4,11,4.1,16.9,4.1C192.1,359.4,200.1,353,200.1,343.2"/>
	<path class="st1" d="M83.2,348.7c-2,1.5-4.8,1-6.3-0.9c-1.5-2-1.1-4.8,0.9-6.3c2-1.5,4.8-1.1,6.3,0.9
		C85.6,344.4,85.2,347.3,83.2,348.7"/>
	<path class="st1" d="M93.7,347.3c-1.6,1.2-3.9,0.8-5-0.7c-1.2-1.6-0.8-3.9,0.7-5.1c1.6-1.2,3.9-0.8,5,0.8
		C95.7,343.8,95.3,346.1,93.7,347.3"/>
	<path class="st1" d="M101.4,339.7c-1.5,1.1-3.9,0.8-5-0.8c-1.1-1.5-0.8-3.9,0.8-5c1.5-1.1,3.9-0.8,5,0.8
		C103.3,336.2,102.9,338.6,101.4,339.7"/>
	<path class="st1" d="M71.4,329.9c-2.9,2.1-6.5,1.6-8.7-1.3c-2.1-2.9-1.7-6.7,1.2-8.9c2.9-2.1,6.8-1.6,9,1.4
		C75,324,74.2,327.8,71.4,329.9"/>
	<path class="st1" d="M80,317.5c-3.1,2.3-6.9,1.7-9.2-1.4c-2.3-3-1.8-7.1,1.2-9.3c3.1-2.3,7.2-1.7,9.4,1.4
		C83.8,311.3,83.1,315.2,80,317.5"/>
	<path class="st1" d="M73.6,342.8c-2.5,1.8-5.6,1.4-7.4-1.1c-1.8-2.5-1.5-5.7,1-7.6c2.5-1.8,5.8-1.3,7.7,1.1
		C76.7,337.8,76.1,341,73.6,342.8"/>
	<path class="st1" d="M102.8,328.9c-1.2,0.9-2.9,0.6-3.8-0.6c-0.9-1.1-0.6-2.9,0.6-3.8c1.1-0.8,2.9-0.6,3.8,0.6
		C104.2,326.3,104,328,102.8,328.9"/>
	<path class="st1" d="M99.4,319.7c-1,0.7-2.4,0.5-3.2-0.5c-0.7-1-0.5-2.4,0.5-3.2c1-0.7,2.4-0.5,3.2,0.5
		C100.6,317.5,100.3,319,99.4,319.7"/>
	<path class="st1" d="M91.6,313.4c-1,0.7-2.4,0.5-3.2-0.5c-0.7-1-0.5-2.4,0.5-3.2c1-0.7,2.4-0.5,3.2,0.5
		C92.7,311.2,92.5,312.7,91.6,313.4"/>
	<path class="st1" d="M89.8,366c-3,1-5.9-0.4-6.9-3.4c-1-3,0.4-6,3.4-7c3-1,6.1,0.5,7.1,3.5C94.3,362,92.7,365,89.8,366"/>
	<path class="st1" d="M116.5,335.1c-1.5,0.5-3-0.3-3.6-1.8c-0.5-1.5,0.3-3.1,1.8-3.6c1.5-0.5,3,0.3,3.6,1.8
		C118.8,333.1,118,334.7,116.5,335.1"/>
	<path class="st1" d="M104.1,359.5c-2.4,0.8-4.9-0.4-5.7-2.8c-0.8-2.4,0.4-4.9,2.8-5.7c2.4-0.8,4.9,0.4,5.7,2.8
		C107.7,356.2,106.5,358.7,104.1,359.5"/>
	<path class="st1" d="M113.2,347.9c-1.9,0.6-3.9-0.4-4.6-2.3c-0.6-1.9,0.4-3.9,2.3-4.6s3.9,0.4,4.6,2.3
		C116.1,345.2,115.1,347.2,113.2,347.9"/>
	<path class="st1" d="M72.7,364.6c-3.5,1.2-6.8-0.5-7.9-4c-1.2-3.5,0.4-7,3.9-8.1c3.5-1.2,7.1,0.6,8.2,4.1S76.2,363.4,72.7,364.6"/>
	<path class="st1" d="M58.9,354.9c-3.9,1.3-7.7-0.6-9-4.5c-1.3-3.9,0.5-7.9,4.4-9.2c3.9-1.3,7.9,0.7,9.2,4.6
		C64.9,349.8,62.8,353.6,58.9,354.9"/>
	<path class="st1" d="M52.3,337.3c-4.1,1.4-8-0.6-9.4-4.7c-1.4-4.1,0.5-8.2,4.6-9.6c4.1-1.4,8.3,0.7,9.6,4.8
		C58.5,331.9,56.3,335.9,52.3,337.3"/>
	<path class="st1" d="M54.9,318.5c-4.2,1.4-8.3-0.6-9.7-4.9c-1.4-4.2,0.5-8.6,4.8-10c4.2-1.4,8.7,0.8,10.1,5
		C61.4,312.9,59.1,317.1,54.9,318.5"/>
	<path class="st1" d="M88.1,301.3c-4.4,1.5-8.6-0.6-10.1-5c-1.5-4.4,0.6-8.9,4.9-10.3c4.4-1.5,9,0.8,10.4,5.2
		C94.8,295.5,92.5,299.8,88.1,301.3"/>
	<path class="st1" d="M68.7,304.6c-4.3,1.5-8.5-0.6-9.9-5c-1.4-4.3,0.6-8.7,4.9-10.2c4.3-1.5,8.8,0.8,10.3,5.1
		C75.3,298.9,73,303.1,68.7,304.6"/>
	<path class="st1" d="M116.4,321.7c-1.5,0.5-3-0.3-3.5-1.8c-0.5-1.5,0.3-3.1,1.8-3.6c1.5-0.5,3.1,0.3,3.6,1.8
		C118.7,319.6,117.9,321.2,116.4,321.7"/>
	<path class="st1" d="M112.1,311.5c-1.5,0.5-3-0.3-3.6-1.8c-0.5-1.5,0.3-3,1.8-3.5c1.5-0.5,3,0.3,3.5,1.8
		C114.4,309.5,113.6,311,112.1,311.5"/>
	<path class="st1" d="M104.4,302.8c-1.5,0.5-3-0.3-3.6-1.8c-0.5-1.5,0.3-3,1.8-3.5c1.5-0.5,3,0.3,3.5,1.8
		C106.7,300.8,105.9,302.3,104.4,302.8"/>
	<path class="st1" d="M101.8,287.2c-5.2-2.2-7.5-8-5.3-13.1c2.2-5.2,8-7.5,13.1-5.3c5.2,2.2,7.5,8,5.3,13.2
		C112.8,287,107,289.4,101.8,287.2"/>
	<path class="st1" d="M28.8,313.1c-4.5-1.9-6.5-6.7-4.5-11.2c1.9-4.5,6.8-6.6,11.3-4.7c4.5,1.9,6.6,7,4.6,11.5
		C38.3,313.1,33.3,315,28.8,313.1"/>
	<path class="st1" d="M25,332.7c-4.2-1.8-6-6.5-4.3-10.6c1.8-4.2,6.5-6,10.6-4.3c4.1,1.8,6,6.5,4.3,10.6
		C33.8,332.5,29.1,334.4,25,332.7"/>
	<path class="st1" d="M30.7,350.9c-3.4-1.4-5-5.3-3.5-8.7c1.4-3.4,5.3-5,8.7-3.5c3.4,1.4,5,5.3,3.5,8.7
		C38,350.8,34.1,352.4,30.7,350.9"/>
	<path class="st1" d="M42,366.4c-3-1.3-4.2-4.3-2.9-7.3s4.4-4.4,7.3-3.1c3,1.3,4.3,4.5,3,7.5C48.2,366.4,45,367.6,42,366.4"/>
	<path class="st1" d="M58.9,377.3c-2.7-1.1-4-4.4-2.9-7.1c1.2-2.7,4.4-4,7.1-2.9c2.7,1.2,4,4.4,2.9,7.1
		C64.8,377.1,61.6,378.4,58.9,377.3"/>
	<path class="st1" d="M99.6,377.1c-2.3-1-3.4-3.6-2.4-5.9c1-2.3,3.6-3.4,5.9-2.4c2.3,1,3.4,3.6,2.4,5.9
		C104.5,377,101.9,378,99.6,377.1"/>
	<path class="st1" d="M79.2,381.2c-2.5-1.1-3.7-3.9-2.6-6.4c1.1-2.5,3.9-3.7,6.4-2.6c2.5,1.1,3.7,3.9,2.6,6.5
		C84.6,381.1,81.8,382.3,79.2,381.2"/>
	<path class="st1" d="M117.2,364.7c-1.9-0.8-2.7-2.9-1.9-4.7c0.8-1.9,2.8-2.7,4.7-1.9c1.9,0.8,2.7,2.9,1.9,4.7
		C121.1,364.7,119.1,365.5,117.2,364.7"/>
	<path class="st1" d="M79.9,280.9c-5.3-2.2-7.4-7.6-5.2-12.9c2.2-5.2,7.7-7.7,13-5.5c5.3,2.2,7.6,8,5.4,13.3
		C90.8,281,85.1,283.1,79.9,280.9"/>
	<path class="st1" d="M57.5,283.5c-5.2-2.2-7.3-7.5-5.2-12.7c2.2-5.2,7.7-7.6,12.9-5.5c5.2,2.2,7.5,8,5.3,13.1
		C68.3,283.7,62.7,285.7,57.5,283.5"/>
	<path class="st1" d="M40,295.9c-4.8-2-6.9-7-4.8-11.9c2-4.8,7.1-7.1,12-5.1c4.8,2,7,7.4,4.9,12.3C50.1,296.1,44.9,298,40,295.9"/>
	<path class="st1" d="M127.3,348.2c-1.5-0.6-2.1-2.2-1.5-3.7c0.6-1.4,2.2-2.1,3.7-1.5c1.4,0.6,2.1,2.2,1.5,3.7
		C130.3,348.2,128.7,348.9,127.3,348.2"/>
	<path class="st1" d="M131.9,330.1c-1.5-0.6-2.1-2.2-1.5-3.7c0.6-1.4,2.2-2.1,3.7-1.5c1.4,0.6,2.1,2.2,1.5,3.7
		C135,330.1,133.3,330.7,131.9,330.1"/>
	<path class="st1" d="M123.1,296.2c-1.5-0.6-2.1-2.2-1.5-3.7c0.6-1.5,2.2-2.1,3.7-1.5c1.4,0.6,2.1,2.2,1.5,3.7
		C126.2,296.2,124.6,296.8,123.1,296.2"/>
	<path class="st1" d="M130.1,312.5c-1.5-0.6-2.1-2.2-1.5-3.7c0.6-1.5,2.2-2.1,3.7-1.5c1.4,0.6,2.1,2.2,1.5,3.7
		C133.1,312.4,131.5,313.1,130.1,312.5"/>
</g>
</svg>
