<?xml version="1.0" encoding="utf-8"?>
<!-- Svg Vector Icons : http://www.onlinewebfonts.com/icon -->
<!DOCTYPE svg PUBLIC "-//W3C//DTD SVG 1.1//EN" "http://www.w3.org/Graphics/SVG/1.1/DTD/svg11.dtd">
<svg version="1.1" xmlns="http://www.w3.org/2000/svg" xmlns:xlink="http://www.w3.org/1999/xlink" x="0px" y="0px" viewBox="0 0 1000 1000" enable-background="new 0 0 1000 1000" xml:space="preserve">
<metadata> Svg Vector Icons : http://www.onlinewebfonts.com/icon </metadata>
<g><g transform="translate(0.000000,512.000000) scale(0.100000,-0.100000)"><path d="M4526.1,5009.2c-1477.9-151.4-2792.8-943.1-3626.6-2187.1c-306.7-460-594.2-1144.3-703.5-1683c-82.4-414-97.8-563.5-95.8-1025.5c0-500.3,34.5-785.9,149.5-1226.8c90.1-343.1,178.3-580.8,356.5-939.2c956.5-1936,3072.7-3019,5204.2-2662.5c1500.9,251.1,2831.2,1221,3538.4,2582C9695.8-1462,9868.3-800.7,9897-39.7c46,1326.4-446.6,2605-1374.4,3563.4C7750.2,4321,6795.6,4811.7,5685.8,4982.3C5446.2,5018.8,4771.4,5036,4526.1,5009.2z M5609.1,4232.9c1341.8-203.2,2516.8-1061.9,3111-2275.3c193.6-392.9,302.9-739.9,381.5-1201.9c57.5-341.2,57.5-923.9,0-1265.1c-134.2-789.7-439-1454.9-939.2-2051c-531-634.5-1303.4-1123.3-2104.7-1332.2c-383.4-99.7-636.4-130.3-1061.9-130.3c-425.5,0-678.5,30.7-1061.9,130.3c-799.3,208.9-1569.9,693.9-2106.6,1332.2c-1259.4,1497-1316.9,3622.8-139.9,5194.6c174.4,233.9,563.5,623,797.4,797.4c621,463.9,1353.3,753.3,2118.1,831.9C4834.7,4286.5,5361.8,4271.2,5609.1,4232.9z"/><path d="M4643,3207.4c-534.8-55.6-1127.1-277.9-1564.1-586.6c-408.3-289.4-805.1-753.3-1037-1219.1c-369.9-734.2-433.2-1640.8-172.5-2413.3c61.3-182.1,157.2-404.4,168.7-392.9c3.8,3.8-11.5,49.8-32.6,101.6c-69,161-153.3,486.9-182.1,713.1c-99.7,762.9,72.8,1493.2,509.9,2150.7c170.6,256.9,538.6,623,808.9,803.1c918.2,609.6,2054.8,682.4,3020.9,193.6l122.7-61.3l139.9,151.4c76.7,82.4,139.9,157.2,141.8,164.8c0,24.9-335.4,178.3-527.1,239.6C5584.2,3201.6,5099.2,3255.3,4643,3207.4z"/><path d="M6163.1,1875.2C5204.6,849.7,4999.6,640.7,4967,648.4c-23,5.8-95.8,1.9-162.9-9.6c-331.6-53.7-584.6-306.7-628.7-628.7c-46-337.4,109.3-632.6,414-782.1c136.1-69,155.3-72.8,318.2-70.9c245.4,1.9,364.2,49.8,531,216.6c159.1,159.1,214.7,287.5,216.6,500.3c0,78.6-1.9,170.6-5.8,201.3c-5.7,47.9,139.9,318.2,803.2,1485.5c444.7,785.9,826.1,1456.8,847.2,1491.3c21.1,32.6,34.5,61.3,28.8,61.3C7324.7,3113.4,6799.5,2557.6,6163.1,1875.2z"/><path d="M7148.3,2103.3c-97.8-170.6-115-212.8-95.8-237.7c13.4-17.3,80.5-107.3,153.3-201.3c141.9-187.8,329.7-548.2,404.5-782.1c105.4-322,134.2-509.9,134.2-893.2c0-513.7-72.9-833.8-293.3-1274.7c-63.3-126.5-113.1-230-111.2-231.9c1.9-1.9,99.7-57.5,214.7-122.7c116.9-65.2,247.3-139.9,293.3-166.8l82.4-46l93.9,197.5c116.9,247.3,214.7,540.5,272.2,824.2c38.3,189.7,44.1,270.3,44.1,667.1c-1.9,394.9-7.7,475.4-46,651.7c-101.6,469.6-312.4,958.4-567.4,1313c-118.8,166.8-419.8,508-448.6,508C7271,2308.4,7211.6,2216.4,7148.3,2103.3z"/><path d="M3462.3-2541.2v-172.5h182.1h182.1v172.5v172.5h-182.1h-182.1V-2541.2z"/><path d="M4286.5-2541.2v-172.5H4459h172.5v172.5v172.5H4459h-172.5V-2541.2z"/><path d="M5091.6-2541.2v-172.5h182.1h182.1v172.5v172.5h-182.1h-182.1V-2541.2z"/><path d="M5915.8-2541.2v-172.5h182.1H6280v172.5v172.5h-182.1h-182.1V-2541.2z"/></g></g>
</svg>