<?xml version="1.0" encoding="utf-8"?>
<!-- Generator: Adobe Illustrator 21.1.0, SVG Export Plug-In . SVG Version: 6.00 Build 0)  -->
<svg version="1.1" id="Laag_1" xmlns="http://www.w3.org/2000/svg" xmlns:xlink="http://www.w3.org/1999/xlink" x="0px" y="0px"
	 viewBox="0 0 512 512" style="enable-background:new 0 0 512 512;" xml:space="preserve">
<path d="M0,483c170.7,0,341.3,0,512,0v29H0V483z"/>
<path d="M231.6,79.8c-0.4,16.2-6,30-17.9,41c-5.9,5.4-9.8,11.5-10.7,19.6c-1.2,10.3,1.7,19,8.9,26.4c2.1,2.1,4.4,4.1,6.4,6.3
	c8.4,9.8,12.6,21.3,13.1,34.3c0.6,17.5-5.4,32.5-18.5,44c-9.5,8.3-13.2,23.1-7.5,35.6c1.6,3.5,4,7,6.9,9.6
	c12.1,11,18.5,24.5,19.1,40.8c0.5,14.6-4,27.5-13.4,38.7c-2.7,3.2-5.9,5.8-8.7,8.9c-9.8,11-8.6,30.8,2,40.5c1.1,1,2.1,2.1,3,3.3
	c4,5.5,3.6,11.6-0.9,16.4c-4.7,5-10.9,5.7-16.7,1.7c-5.6-3.9-9.8-9.2-12.8-15.1c-10.4-20.7-9.7-41.1,3.3-60.6
	c2.6-4,6.3-7.3,9.8-10.6c10.4-9.9,11-28.5,3.1-39.1c-1.8-2.4-4-4.5-6.1-6.5c-11.5-11-16.8-24.3-17-40.2c-0.2-17,5.7-31.4,18.5-42.5
	c11-9.5,13-27.6,5.5-39.2c-1.8-2.8-4.1-5.3-6.5-7.5c-8.7-8.1-14.6-17.8-16.5-29.5c-3.3-20.5,0.9-39,17.2-53
	c12.5-10.8,14.4-33.2,1-45.9c-5.8-5.5-6.5-11.6-2.4-17.4c4.5-6.3,13.1-7.2,19.3-1.7c9.1,8,14.6,18.1,17,29.8
	C231,71.9,231.2,75.9,231.6,79.8z"/>
<path d="M335.3,79.8c-0.4,16.2-6,30-17.9,41c-5.9,5.4-9.8,11.5-10.7,19.6c-1.2,10.3,1.7,19,8.9,26.4c2.1,2.1,4.4,4.1,6.4,6.3
	c8.4,9.8,12.6,21.3,13.1,34.3c0.6,17.5-5.4,32.5-18.5,44c-9.5,8.3-13.2,23.1-7.5,35.6c1.6,3.5,4,7,6.9,9.6
	c12.1,11,18.5,24.5,19.1,40.8c0.5,14.6-4,27.5-13.4,38.7c-2.7,3.2-5.9,5.8-8.7,8.9c-9.8,11-8.6,30.8,2,40.5c1.1,1,2.1,2.1,3,3.3
	c4,5.5,3.6,11.6-0.9,16.4c-4.7,5-10.9,5.7-16.7,1.7c-5.6-3.9-9.8-9.2-12.8-15.1c-10.4-20.7-9.7-41.1,3.3-60.6
	c2.6-4,6.3-7.3,9.8-10.6c10.4-9.9,11-28.5,3.1-39.1c-1.8-2.4-4-4.5-6.1-6.5c-11.5-11-16.8-24.3-17-40.2c-0.2-17,5.7-31.4,18.5-42.5
	c11-9.5,13-27.6,5.5-39.2c-1.8-2.8-4.1-5.3-6.5-7.5c-8.7-8.1-14.6-17.8-16.5-29.5c-3.3-20.5,0.9-39,17.2-53
	c12.5-10.8,14.4-33.2,1-45.9c-5.8-5.5-6.5-11.6-2.4-17.4c4.5-6.3,13.1-7.2,19.3-1.7c9.1,8,14.6,18.1,17,29.8
	C334.7,71.9,334.9,75.9,335.3,79.8z"/>
<path d="M283.5,79.8c-0.4,16.2-6,30-17.9,41c-5.9,5.4-9.8,11.5-10.7,19.6c-1.2,10.3,1.7,19,8.9,26.4c2.1,2.1,4.4,4.1,6.4,6.3
	c8.4,9.8,12.6,21.3,13.1,34.3c0.6,17.5-5.4,32.5-18.5,44c-9.5,8.3-13.2,23.1-7.5,35.6c1.6,3.5,4,7,6.9,9.6
	c12.1,11,18.5,24.5,19.1,40.8c0.5,14.6-4,27.5-13.4,38.7c-2.7,3.2-5.9,5.8-8.7,8.9c-9.8,11-8.6,30.8,2,40.5c1.1,1,2.1,2.1,3,3.3
	c4,5.5,3.6,11.6-0.9,16.4c-4.7,5-10.9,5.7-16.7,1.7c-5.6-3.9-9.8-9.2-12.8-15.1c-10.4-20.7-9.7-41.1,3.3-60.6
	c2.6-4,6.3-7.3,9.8-10.6c10.4-9.9,11-28.5,3.1-39.1c-1.8-2.4-4-4.5-6.1-6.5c-11.5-11-16.8-24.3-17-40.2c-0.2-17,5.7-31.4,18.5-42.5
	c11-9.5,13-27.6,5.5-39.2c-1.8-2.8-4.1-5.3-6.5-7.5c-8.7-8.1-14.6-17.8-16.5-29.5c-3.3-20.5,0.9-39,17.2-53
	c12.5-10.8,14.4-33.2,1-45.9c-5.8-5.5-6.5-11.6-2.4-17.4c4.5-6.3,13.1-7.2,19.3-1.7c9.1,8,14.6,18.1,17,29.8
	C282.8,71.9,283,75.9,283.5,79.8z"/>
</svg>
