<?xml version="1.0" standalone="no"?>
<!DOCTYPE svg PUBLIC "-//W3C//DTD SVG 20010904//EN"
 "http://www.w3.org/TR/2001/REC-SVG-20010904/DTD/svg10.dtd">
<svg version="1.0" xmlns="http://www.w3.org/2000/svg"
 width="680.000000pt" height="800.000000pt" viewBox="0 0 680.000000 800.000000"
 preserveAspectRatio="xMidYMid meet">
<metadata>
Created by potrace 1.15, written by Peter Selinger 2001-2017
</metadata>
<g transform="translate(0.000000,800.000000) scale(0.100000,-0.100000)"
fill="#000000" stroke="none">
<path d="M2985 7664 c-661 -352 -1293 -806 -1948 -1396 -97 -88 -177 -161
-178 -161 -1 -3 -41 -5321 -40 -5351 1 -62 12 -68 227 -111 l199 -40 -3 -140
c-1 -77 1 -156 6 -175 10 -44 43 -66 154 -104 l86 -29 103 63 c57 34 115 72
127 84 30 26 58 81 67 129 4 20 11 37 17 37 5 0 73 -8 151 -17 202 -23 492
-24 577 0 162 45 747 402 1189 725 406 298 925 735 969 816 15 27 17 93 22
554 l5 523 55 -76 c108 -152 291 -300 476 -386 49 -23 91 -43 93 -45 2 -2 -26
-35 -62 -74 -85 -90 -118 -154 -125 -242 -8 -113 34 -223 162 -428 44 -71 66
-115 66 -136 0 -17 9 -65 19 -106 46 -180 182 -372 355 -501 92 -70 126 -87
174 -87 l39 0 6 -82 c13 -158 84 -253 255 -338 l87 -43 0 -61 c0 -152 144
-303 385 -405 85 -37 103 -38 98 -11 -2 15 -25 30 -82 55 -169 73 -277 159
-326 259 -24 48 -31 74 -28 107 l3 44 125 6 c106 6 224 24 293 45 9 3 17 15
17 28 l0 22 -107 -22 c-60 -12 -160 -24 -223 -28 l-116 -7 -94 47 c-171 85
-240 179 -240 324 l0 57 159 6 c155 7 359 25 534 48 83 11 87 13 87 37 0 23
-2 24 -37 18 -137 -23 -439 -50 -693 -62 -139 -6 -148 -5 -190 16 -159 81
-343 288 -410 461 -27 70 -53 188 -44 198 6 7 203 -18 437 -55 714 -112 743
-115 915 -78 15 3 22 12 22 28 l0 23 -87 -15 c-106 -18 -214 -10 -555 44 -478
74 -537 83 -642 95 l-108 12 -53 81 c-63 96 -129 225 -144 281 -20 72 -14 165
14 221 28 56 149 194 171 194 7 0 53 -11 100 -25 130 -38 262 -62 424 -79 80
-8 229 -31 330 -50 294 -55 410 -75 483 -82 l67 -7 0 27 c0 25 -3 26 -52 26
-65 1 -117 19 -164 56 -20 16 -46 36 -57 44 -17 12 -72 16 -271 21 -414 11
-583 34 -811 110 -343 116 -588 313 -724 585 -76 152 -113 335 -96 470 6 51
12 64 47 97 37 35 83 60 135 73 23 6 23 5 -10 -62 -29 -62 -32 -78 -31 -154 1
-104 26 -175 92 -263 108 -143 303 -249 380 -208 11 6 33 37 49 68 25 53 28
67 27 163 0 104 -1 110 -49 222 -6 14 5 12 61 -13 96 -44 194 -66 336 -78 112
-9 131 -13 210 -50 121 -56 224 -82 328 -82 88 0 112 3 295 46 61 14 154 28
208 31 93 7 97 8 97 31 0 19 -5 23 -33 23 -64 0 -204 -21 -327 -50 -69 -16
-151 -32 -182 -36 -58 -7 -214 12 -223 26 -7 12 186 211 272 281 136 109 243
149 400 149 85 0 93 2 93 19 0 25 -19 31 -103 31 -220 -1 -386 -100 -661 -397
-31 -35 -61 -63 -66 -63 -4 0 -46 17 -92 38 -74 34 -97 40 -214 50 -231 22
-380 80 -514 204 -101 93 -172 128 -260 128 -37 0 -89 -7 -115 -15 -27 -8 -51
-12 -54 -10 -2 3 1 808 8 1790 11 1648 11 1788 -4 1820 -18 37 -42 61 -51 52
-3 -3 4 -19 16 -35 24 -32 33 -102 15 -109 -6 -2 -17 13 -24 32 -7 20 -23 43
-37 52 -19 12 -22 19 -13 29 6 8 9 20 6 28 -4 10 -1 13 9 9 7 -3 14 0 14 6 0
19 -95 56 -215 84 -230 55 -746 167 -765 167 -12 0 -43 -11 -70 -25 l-50 -25
-163 20 c-89 11 -178 22 -197 25 -30 5 -60 -8 -215 -91z m535 27 c3 -1 -40
-25 -95 -55 -378 -201 -860 -522 -1286 -856 -259 -203 -670 -559 -768 -665
l-44 -47 -91 12 c-103 13 -287 47 -293 54 -10 10 431 393 702 609 464 372 952
693 1415 934 l115 60 170 -22 c94 -13 172 -23 175 -24z m589 -45 c561 -125
587 -139 436 -223 -236 -132 -325 -185 -481 -282 -93 -59 -235 -152 -314 -206
-152 -106 -170 -112 -205 -69 -18 21 -63 34 -400 106 -344 75 -390 82 -487 82
-60 0 -108 3 -108 6 0 10 472 320 624 409 261 155 303 171 352 137 11 -8 36
-19 55 -25 30 -10 30 -10 4 -6 -84 14 -133 16 -157 6 -37 -14 -35 -35 3 -53
29 -14 27 -15 -43 -11 -55 4 -78 1 -93 -10 -19 -15 -19 -16 -1 -36 l19 -21
-60 0 c-35 0 -67 -6 -78 -14 -19 -14 -19 -15 -1 -35 10 -11 28 -21 40 -23 11
-2 -18 -3 -66 -3 -100 0 -125 -12 -92 -45 16 -16 107 -39 419 -105 410 -87
510 -100 535 -70 18 22 5 43 -32 54 -26 7 -18 8 34 4 109 -9 169 30 96 62 -32
14 -31 14 29 8 106 -10 167 36 83 64 -31 10 -25 11 45 7 61 -4 84 -1 99 10 20
16 14 33 -18 47 -15 7 -4 8 39 4 87 -7 146 28 90 53 -14 7 -209 50 -433 98
-339 71 -419 85 -480 82 -39 -2 -72 -2 -72 -1 0 5 175 92 186 92 6 1 201 -41
433 -93z m-56 -93 c202 -42 367 -79 367 -82 -1 -28 -20 -29 -135 -5 -311 65
-592 125 -607 130 -20 6 -25 34 -5 34 6 0 177 -34 380 -77z m-411 8 c-28 -7
615 -144 649 -138 13 2 19 2 12 0 -7 -2 -10 -10 -7 -18 3 -7 1 -16 -5 -20 -9
-5 -738 141 -750 151 -2 2 -1 9 2 16 3 8 25 13 63 14 33 0 49 -2 36 -5z m-154
-59 c-10 -4 130 -38 337 -81 290 -61 355 -77 355 -90 0 -14 -11 -17 -56 -17
-30 0 -47 3 -38 6 24 9 -151 43 -179 35 -18 -5 -19 -4 -7 5 12 9 6 10 -25 6
-23 -3 -34 -2 -27 3 18 11 -50 24 -81 16 -18 -5 -19 -4 -7 5 12 9 6 10 -25 6
-30 -4 -36 -3 -25 5 11 8 5 9 -25 5 -23 -3 -34 -2 -27 3 18 11 -50 24 -81 16
-18 -5 -19 -4 -7 5 12 9 6 10 -25 6 -30 -4 -36 -3 -25 5 11 8 5 9 -25 5 -23
-3 -34 -2 -27 3 10 6 4 10 -18 15 -36 7 -36 27 1 37 33 10 60 10 37 1z m1160
-84 c19 -21 47 -78 40 -83 -2 -1 -48 -26 -103 -55 -206 -110 -543 -318 -763
-471 -62 -43 -115 -79 -117 -79 -2 0 -12 16 -21 35 -9 20 -25 40 -35 46 -11 5
-19 14 -19 18 0 18 305 223 565 381 174 105 402 230 421 230 6 0 20 -10 32
-22z m-1120 -8 c34 -7 61 -15 58 -17 -2 -3 -41 3 -86 12 -45 9 -83 15 -86 13
-3 -3 375 -85 624 -136 13 -2 22 -12 22 -22 0 -20 28 -25 -430 71 -157 33
-296 58 -310 55 -14 -3 -19 -3 -11 1 10 4 11 7 1 13 -47 29 92 35 218 10z m25
-102 c164 -35 294 -64 288 -66 -5 -2 -140 25 -301 58 -160 34 -294 60 -296 57
-4 -4 302 -70 571 -124 72 -14 131 -27 133 -28 9 -7 -14 -36 -33 -41 -23 -6
-239 35 -231 43 2 3 52 -5 111 -17 58 -12 111 -20 118 -17 6 2 -43 14 -108 26
-66 12 -230 46 -365 75 -192 41 -246 55 -248 68 -2 12 5 18 25 21 15 2 30 5
33 6 3 0 139 -27 303 -61z m1155 -1728 c-9 -1450 -13 -1758 -24 -1770 -12 -12
-13 93 -8 660 3 371 9 1163 13 1760 6 948 10 1124 26 1108 2 -2 -1 -793 -7
-1758z m-25 1333 c-2 -225 -8 -1017 -13 -1761 l-9 -1353 -29 -34 c-44 -50 -57
-97 -56 -210 0 -107 18 -198 59 -313 l25 -70 -7 -589 -7 -588 -145 -126 c-585
-508 -1150 -912 -1703 -1217 l-128 -71 0 337 c0 185 7 1250 15 2367 8 1117 15
2162 16 2322 l1 293 57 52 c359 333 910 755 1358 1040 171 110 538 322 563
327 3 1 4 -182 3 -406z m-2129 131 c9 -3 16 -12 16 -20 0 -23 49 -40 210 -74
85 -17 258 -54 384 -81 225 -48 328 -59 366 -39 10 6 28 6 40 2 20 -7 7 -19
-106 -103 -222 -162 -495 -384 -747 -606 -242 -214 -258 -215 -891 -93 -231
44 -422 82 -424 84 -8 9 391 360 623 548 205 165 498 388 510 388 2 0 10 -3
19 -6z m546 -75 c184 -38 343 -72 353 -75 20 -6 23 -34 3 -34 -15 0 -714 147
-733 155 -22 8 -3 35 21 30 11 -3 172 -37 356 -76z m552 -176 c15 -16 29 -40
33 -54 5 -21 1 -29 -22 -44 -145 -94 -603 -460 -852 -683 l-105 -93 -14 28
c-8 15 -27 39 -43 53 l-29 25 162 141 c309 268 799 654 832 654 7 0 24 -12 38
-27z m-2607 -692 c55 -11 142 -25 193 -32 77 -10 92 -15 92 -30 0 -10 -5 -21
-11 -24 -11 -8 -391 44 -409 55 -15 9 4 50 23 50 7 0 57 -9 112 -19z m760 -82
c204 -39 371 -72 373 -73 1 -2 -5 -19 -13 -39 -8 -20 -15 -45 -15 -56 0 -24
45 -30 -435 63 l-370 71 3 35 c5 54 28 82 60 76 15 -3 194 -38 397 -77z m-930
-2480 c-9 -1383 -19 -2581 -24 -2664 -6 -105 -7 -13 -5 305 3 250 9 1233 14
2185 10 1754 19 2699 26 2692 2 -2 -3 -1135 -11 -2518z m442 1706 c-4 -412
-12 -1614 -18 -2670 -7 -1056 -14 -1922 -16 -1925 -4 -5 -400 71 -411 80 -5 3
0 1116 9 2475 10 1359 18 2556 18 2661 l1 191 212 -31 211 -30 -6 -751z m1339
731 c19 -19 34 -43 34 -53 0 -31 -106 -80 -214 -98 -52 -9 -254 -8 -290 1 -26
6 -28 10 -23 41 7 42 34 86 47 78 5 -3 58 -6 117 -6 111 0 213 22 257 56 28
21 34 19 72 -19z m-919 -76 c202 -39 377 -72 388 -75 20 -4 20 -10 18 -337 -1
-183 -7 -1096 -13 -2028 -5 -932 -13 -1974 -16 -2315 l-7 -621 -400 41 -400
40 7 1200 c4 660 11 1700 16 2310 6 611 10 1278 10 1483 0 319 2 372 15 372 8
0 180 -32 382 -70z m954 -297 c-1 -153 -8 -1194 -16 -2313 -8 -1119 -15 -2189
-15 -2377 l0 -341 -47 -16 c-87 -28 -176 -38 -332 -37 -84 0 -155 2 -157 4 -2
2 3 993 11 2203 8 1209 16 2398 17 2641 2 243 5 443 8 446 3 2 41 1 85 -2 149
-13 316 11 405 59 19 10 37 17 39 15 2 -2 3 -129 2 -282z m2307 -1814 c24 -12
82 -56 127 -98 46 -42 93 -83 104 -91 61 -43 100 -251 67 -362 -36 -123 -88
-144 -211 -84 -127 62 -241 179 -287 296 -31 80 -31 207 0 275 44 95 48 98
104 92 28 -4 71 -16 96 -28z m-310 -1212 c-4 -373 -9 -542 -17 -550 -8 -8 -11
61 -11 254 0 435 12 873 23 853 6 -11 8 -210 5 -557z m-113 -673 c-94 -89
-329 -289 -505 -431 -155 -124 -392 -303 -402 -303 -22 0 -1 23 60 66 188 135
533 411 779 625 75 65 140 119 143 119 3 -1 -31 -35 -75 -76z m-930 -745 c-20
-52 -973 -650 -984 -618 -6 17 16 32 164 115 239 132 747 455 804 510 17 16
24 13 16 -7z m-2355 -593 c0 -33 18 -44 83 -52 l57 -7 0 -91 c0 -50 -4 -96 -8
-103 -10 -15 -157 17 -156 35 1 7 2 66 3 133 0 77 5 118 11 114 6 -3 10 -17
10 -29z m454 -14 c354 -37 359 -38 368 -61 4 -13 7 -26 4 -28 -5 -5 -785 75
-797 82 -5 4 -9 15 -9 26 0 25 2 25 434 -19z m903 -16 c-8 -20 -69 -50 -137
-67 -80 -20 -367 -20 -380 1 -23 37 -14 39 148 39 160 -1 257 10 328 35 43 15
49 14 41 -8z m-1181 -34 c5 -4 16 -32 22 -62 13 -54 44 -100 68 -100 8 0 3 10
-11 24 -25 26 -50 99 -41 123 5 11 18 13 63 8 106 -12 114 -14 108 -38 -5 -21
-5 -21 6 1 13 23 51 30 78 13 20 -13 -11 -109 -46 -143 -46 -43 -229 -149
-247 -142 -25 10 -30 46 -27 227 1 94 4 105 27 89z"/>
<path d="M2953 7295 c-18 -7 -33 -19 -33 -24 0 -15 41 -40 78 -47 61 -12 24
-15 -43 -3 -51 9 -77 9 -106 0 -48 -14 -54 -46 -11 -62 15 -6 176 -42 357 -80
182 -38 363 -77 404 -85 85 -18 155 -14 180 11 32 33 -11 47 -383 125 -197 41
-354 76 -348 78 11 3 112 -17 452 -90 280 -60 349 -68 385 -44 31 20 32 32 4
47 -22 11 -777 173 -859 183 -29 4 -56 1 -77 -9z m516 -90 c194 -41 355 -76
357 -77 1 -2 -1 -10 -6 -18 -7 -11 -71 0 -377 64 -202 43 -370 79 -372 81 -10
11 10 33 26 29 10 -2 177 -38 372 -79z m-124 -75 c193 -40 354 -77 359 -81 6
-6 6 -13 0 -19 -7 -7 -127 14 -380 67 -203 42 -371 78 -373 79 -11 9 12 36 27
32 9 -3 175 -38 367 -78z"/>
<path d="M2723 7139 c-37 -11 -42 -28 -15 -52 10 -9 140 -41 330 -81 172 -36
353 -75 402 -86 116 -26 180 -26 211 -1 46 38 16 48 -383 133 -501 106 -486
104 -545 87z m511 -90 c322 -68 375 -84 353 -105 -5 -5 -630 123 -719 147 -21
5 -38 13 -38 18 0 15 15 22 35 18 11 -2 177 -37 369 -78z"/>
<path d="M4294 4690 c-21 -16 -200 -146 -397 -287 -209 -150 -364 -268 -371
-283 -15 -27 -28 -396 -17 -440 4 -14 14 -26 23 -28 8 -2 199 129 424 290 356
255 411 298 421 328 12 37 18 404 7 434 -10 25 -47 19 -90 -14z m66 -65 c0
-58 -2 -65 -20 -65 -11 0 -20 -4 -20 -10 0 -5 -4 -10 -10 -10 -5 0 -10 9 -10
21 0 34 -44 21 -48 -13 -2 -16 1 -28 6 -28 6 0 6 -10 -1 -24 -7 -13 -15 -22
-19 -20 -13 8 -49 -16 -42 -28 5 -7 2 -8 -5 -4 -8 5 -14 1 -18 -12 -3 -12 -11
-18 -19 -15 -7 3 -28 -7 -45 -21 -17 -14 -35 -26 -40 -26 -5 0 -11 -11 -15
-24 -4 -16 -11 -23 -20 -19 -17 6 -46 -15 -38 -28 3 -5 0 -8 -8 -7 -7 2 -16
11 -20 21 -12 30 -38 21 -38 -14 0 -29 -18 -59 -37 -59 -4 -1 -21 -11 -37 -24
-25 -21 -28 -28 -23 -62 5 -28 4 -33 -3 -19 -5 11 -9 16 -9 11 -1 -6 -8 -1
-16 10 -14 18 -16 18 -29 2 -7 -10 -18 -18 -24 -18 -37 0 -57 -101 -23 -119
10 -6 21 -20 24 -31 3 -11 1 -18 -4 -14 -5 3 -9 0 -9 -5 0 -6 -6 -11 -14 -11
-8 0 -16 -6 -19 -12 -3 -10 -8 -10 -18 1 -11 10 -11 15 -1 18 17 6 15 32 -3
39 -14 6 -13 8 1 19 11 7 14 17 9 25 -4 7 -9 29 -11 49 -4 41 -25 61 -57 53
-29 -7 -67 -43 -67 -64 0 -9 -5 -20 -10 -23 -6 -3 -8 -18 -5 -33 l5 -27 -11
28 c-26 66 -23 68 401 372 217 156 401 284 408 285 8 0 12 -19 12 -65z m-5
-281 c-5 -60 -11 -76 -33 -96 -15 -14 -193 -143 -397 -288 -203 -145 -376
-267 -382 -273 -10 -7 -13 6 -12 59 0 50 3 63 9 47 5 -12 16 -25 25 -31 22
-12 65 -3 65 13 0 7 7 16 16 19 11 4 15 14 12 31 -4 17 -1 25 8 25 8 0 14 9
14 20 0 11 -5 20 -12 20 -6 0 -3 8 8 19 14 12 30 17 52 13 28 -4 33 0 46 29 8
19 18 49 23 68 7 30 8 27 8 -27 0 -34 -3 -54 -7 -45 -6 18 -8 11 -8 -34 0 -5
8 -8 18 -8 13 0 19 14 28 60 8 48 13 59 27 57 24 -4 55 15 62 38 4 12 15 20
30 20 14 0 25 7 28 20 3 11 12 20 20 20 22 0 86 42 87 57 0 6 10 13 23 15 15
2 21 9 19 21 -3 15 1 17 18 12 16 -5 23 -2 27 14 3 12 13 21 25 21 11 0 33 10
48 23 16 12 41 32 56 43 26 21 27 26 25 89 -2 43 2 72 11 82 11 14 13 10 16
-33 2 -27 1 -81 -3 -120z"/>
<path d="M4085 3895 c-143 -102 -267 -197 -276 -211 -9 -14 -20 -48 -23 -76
-6 -47 -4 -56 28 -108 34 -54 76 -144 76 -158 -1 -4 -14 20 -31 53 -76 150
-192 196 -303 118 -63 -44 -64 -56 -65 -549 -1 -416 0 -432 19 -449 19 -17 25
-14 205 115 102 72 192 142 200 153 9 12 18 39 22 61 l6 39 14 -28 c10 -17 21
-25 31 -22 22 6 353 243 370 265 7 9 17 32 22 52 11 40 15 886 4 913 -3 9 -14
17 -23 17 -9 0 -133 -83 -276 -185z m244 99 c7 -6 9 -4 -261 -198 -137 -97
-248 -181 -248 -186 0 -5 11 -21 24 -35 74 -79 126 -273 142 -527 10 -165 -10
-132 -25 39 -15 180 -58 322 -129 432 -18 27 -28 126 -12 116 6 -3 11 1 11 9
1 9 2 22 3 28 0 7 102 86 226 175 215 155 243 170 269 147z m8 -191 c-4 -87
-7 -262 -7 -390 l0 -232 -160 -115 c-88 -64 -161 -116 -164 -116 -2 0 -6 64
-9 143 -7 204 -43 345 -117 465 -18 29 -30 56 -27 59 17 17 473 342 481 342 5
1 6 -64 3 -156z m-615 -364 c66 -33 116 -131 147 -286 21 -110 35 -282 24
-299 -5 -6 -80 -62 -168 -124 -88 -62 -166 -117 -172 -123 -10 -7 -13 4 -12
49 0 44 3 53 9 38 38 -95 129 57 100 166 -6 23 -18 44 -26 47 -22 8 -53 -25
-69 -76 -12 -42 -14 -19 -14 261 -1 168 -4 315 -7 325 -4 13 -3 15 4 4 7 -10
11 -10 17 -1 4 7 21 19 39 27 30 13 13 13 -29 -2 -13 -4 -11 -1 5 9 31 18 99
11 152 -15z"/>
<path d="M4173 3718 c-19 -31 -43 -75 -53 -100 -7 -16 -15 -28 -20 -28 -4 0
-13 -14 -20 -30 -12 -28 -14 -29 -26 -13 -13 17 -15 17 -34 -6 -34 -39 -26
-87 25 -163 50 -75 51 -78 31 -116 -18 -36 -26 -95 -15 -113 6 -11 17 -5 51
28 24 23 55 45 70 48 33 9 52 29 77 85 56 127 49 257 -20 360 -41 61 -52 69
-66 48z m44 -50 c20 -39 25 -75 27 -183 1 -127 -37 -217 -101 -239 -17 -6 -35
-15 -40 -20 -5 -5 -1 -6 10 -3 10 4 16 3 12 -2 -5 -9 -45 -11 -45 -3 0 1 9 21
21 44 l21 40 -51 76 c-52 77 -62 113 -37 137 12 12 15 12 20 -1 3 -8 2 -12 -4
-9 -6 3 -10 -1 -10 -9 0 -9 7 -17 15 -17 8 -1 21 -2 27 -3 8 -1 14 15 16 39 1
22 9 45 17 51 7 5 17 22 20 37 4 15 11 27 16 27 4 0 16 16 25 35 9 19 18 35
20 35 2 0 11 -15 21 -32z"/>
<path d="M2484 6970 c-33 -13 -39 -30 -18 -51 14 -13 98 -35 304 -78 157 -33
338 -71 402 -86 65 -14 139 -25 166 -25 75 0 122 47 70 70 -39 17 -828 180
-867 179 -20 0 -46 -4 -57 -9z m495 -85 c195 -41 358 -75 362 -75 5 0 9 -8 9
-18 0 -17 -4 -18 -72 -4 -74 14 -624 127 -665 137 -23 5 -22 35 1 35 7 0 171
-34 365 -75z"/>
<path d="M2350 6872 c-47 -38 -3 -60 205 -101 88 -18 263 -55 389 -82 243 -52
308 -58 344 -33 48 33 12 64 -98 84 -36 6 -213 43 -393 81 -350 74 -411 80
-447 51z m505 -73 c193 -39 358 -74 367 -78 11 -4 15 -11 10 -18 -6 -10 -27
-9 -97 3 -79 14 -573 116 -632 131 -24 5 -32 33 -10 33 6 1 170 -31 362 -71z
m-110 -24 c210 -45 465 -95 482 -95 2 0 3 -5 3 -11 0 -16 -41 -10 -395 65
-176 37 -330 69 -342 72 -21 4 -33 24 -15 24 4 0 124 -25 267 -55z"/>
<path d="M2244 6791 c-33 -14 -38 -31 -17 -52 14 -15 116 -40 418 -104 422
-89 496 -99 536 -66 23 19 23 20 5 39 -10 12 -30 23 -45 26 -14 3 -188 40
-386 82 -357 76 -470 92 -511 75z m506 -86 c201 -42 367 -78 368 -80 2 -2 0
-10 -5 -17 -7 -13 -231 29 -700 132 -38 8 -53 16 -53 28 0 11 -3 13 -8 6 -10
-16 -132 -29 -132 -15 0 20 43 31 105 27 33 -2 224 -38 425 -81z m-3 -45 c191
-40 353 -77 358 -83 18 -17 -91 1 -419 71 -207 44 -321 73 -324 82 -3 9 2 11
16 8 12 -3 178 -39 369 -78z"/>
<path d="M2141 6702 c-13 -4 -29 -16 -35 -25 -17 -28 22 -53 107 -71 517 -111
756 -157 791 -153 21 3 48 15 60 27 l21 21 -23 19 c-12 10 -48 24 -80 30 -31
6 -207 43 -390 81 -346 73 -411 83 -451 71z m427 -76 c169 -36 335 -70 370
-77 56 -11 78 -28 54 -43 -9 -5 -739 147 -748 157 -6 6 3 27 12 27 3 0 143
-29 312 -64z m42 -56 c411 -86 380 -78 380 -90 0 -12 -49 -6 -190 25 -58 13
-207 45 -332 71 -150 31 -228 51 -228 60 0 7 8 10 18 8 9 -2 168 -36 352 -74z"/>
<path d="M2003 6598 c-13 -6 -23 -19 -23 -29 0 -32 40 -46 265 -93 121 -25
308 -63 415 -86 197 -41 232 -42 278 -14 27 18 28 40 2 54 -34 18 -818 180
-868 179 -26 0 -57 -5 -69 -11z m516 -83 c195 -41 355 -75 357 -75 2 0 4 -7 4
-15 0 -8 -7 -15 -17 -15 -17 0 -736 150 -741 155 -9 8 12 32 26 29 9 -3 176
-38 371 -79z m-1 -46 c318 -67 396 -88 330 -90 -13 0 -182 33 -375 73 -256 53
-353 77 -353 87 0 8 8 12 23 9 12 -3 181 -38 375 -79z"/>
<path d="M1882 6494 c-56 -39 -16 -65 148 -98 69 -13 244 -50 390 -81 146 -31
289 -56 317 -57 88 -1 135 49 73 79 -14 6 -129 33 -255 58 -127 26 -300 62
-385 81 -170 37 -253 43 -288 18z m473 -68 c171 -35 331 -68 358 -71 37 -6 47
-11 47 -26 0 -11 -5 -19 -11 -19 -18 0 -695 143 -736 156 -7 2 -10 10 -7 19 4
9 14 13 23 11 9 -3 156 -34 326 -70z m50 -55 c187 -40 344 -77 349 -82 21 -20
-63 -7 -401 63 -255 53 -353 77 -353 87 0 18 4 17 405 -68z"/>
<path d="M1759 6391 c-34 -28 -16 -52 52 -73 74 -22 777 -168 812 -168 45 0
97 26 97 49 0 26 -37 45 -115 61 -33 6 -209 43 -391 81 -356 74 -417 81 -455
50z m821 -136 c59 -10 71 -17 60 -34 -7 -12 -69 -2 -377 63 -202 43 -370 79
-372 81 -2 2 -1 10 2 18 4 11 67 1 324 -53 175 -37 338 -71 363 -75z m-318 19
c200 -42 367 -79 371 -84 24 -22 -30 -17 -205 19 -503 104 -548 114 -548 128
0 7 4 13 10 13 5 0 173 -34 372 -76z"/>
<path d="M1644 6286 l-29 -26 27 -24 c16 -15 50 -29 85 -36 32 -6 209 -42 393
-81 347 -72 419 -80 458 -53 40 28 25 57 -38 75 -90 27 -750 163 -811 167 -49
3 -60 0 -85 -22z m480 -65 c182 -38 348 -72 369 -75 20 -4 37 -10 37 -14 -1
-30 -27 -27 -365 44 -192 41 -360 76 -372 79 -23 5 -33 35 -12 35 6 0 160 -31
343 -69z m21 -51 c379 -79 375 -78 375 -91 0 -18 -69 -7 -410 65 -289 61 -346
76 -348 91 -3 14 1 17 20 12 12 -3 176 -38 363 -77z"/>
</g>
</svg>
