<svg id="svg" version="1.1" xmlns="http://www.w3.org/2000/svg" xmlns:xlink="http://www.w3.org/1999/xlink" width="400" height="402.5917926565875" viewBox="0, 0, 400,402.5917926565875"><g id="svgg"><path id="path0" d="M36.412 15.610 C 28.710 17.136,20.665 23.859,16.965 31.860 L 15.119 35.853 15.119 201.296 L 15.119 366.739 17.247 371.058 C 22.761 382.250,43.242 392.703,45.175 385.313 C 45.820 382.845,96.438 382.572,96.913 385.035 C 97.312 387.106,255.724 387.776,255.724 385.706 C 255.724 383.722,327.860 383.827,328.971 385.813 C 330.463 388.480,362.110 387.227,367.696 384.281 C 373.184 381.386,379.463 374.516,381.562 369.109 C 383.469 364.199,384.561 51.388,382.713 39.366 C 381.084 28.768,375.955 21.873,366.346 17.366 L 361.555 15.119 200.864 14.992 C 112.484 14.922,38.480 15.200,36.412 15.610 M43.762 17.229 L 45.896 18.908 42.602 19.498 C 31.164 21.549,21.065 31.552,19.300 42.578 C 18.707 46.277,15.551 44.998,15.551 41.060 C 15.551 30.847,24.682 19.833,35.582 16.900 C 41.552 15.293,41.287 15.283,43.762 17.229 M352.604 17.307 C 349.362 20.009,47.801 19.980,45.356 17.279 C 43.793 15.551,43.846 15.551,199.218 15.579 C 353.885 15.608,354.634 15.617,352.604 17.307 M366.739 18.516 C 376.831 23.066,384.625 36.842,380.971 43.671 C 379.397 46.612,378.402 46.314,378.402 42.903 C 378.402 33.488,368.212 22.762,356.454 19.801 C 352.541 18.816,352.463 18.733,353.922 17.121 C 355.768 15.082,360.188 15.563,366.739 18.516 M46.652 20.561 C 46.652 20.942,44.417 21.715,41.685 22.280 C 31.537 24.380,23.198 32.912,21.927 42.497 C 21.624 44.782,20.987 46.652,20.513 46.652 C 17.629 46.652,22.451 34.160,27.443 28.700 C 32.422 23.254,46.652 17.225,46.652 20.561 M350.756 20.734 C 350.756 21.307,299.640 21.598,199.136 21.598 C 98.632 21.598,47.516 21.307,47.516 20.734 C 47.516 20.162,98.632 19.870,199.136 19.870 C 299.640 19.870,350.756 20.162,350.756 20.734 M362.419 22.902 C 367.360 25.246,370.299 27.397,369.564 28.132 C 369.286 28.410,367.416 27.447,365.407 25.991 C 363.262 24.437,359.664 22.914,356.688 22.299 C 353.900 21.724,351.620 20.898,351.620 20.465 C 351.620 19.261,357.579 20.606,362.419 22.902 M362.851 25.574 C 365.464 27.048,368.863 29.893,370.403 31.895 C 376.203 39.436,375.856 28.039,375.605 203.068 L 375.378 361.555 373.360 365.443 C 370.529 370.898,365.948 375.363,360.784 377.700 L 356.371 379.698 198.704 379.698 L 41.037 379.698 36.987 377.808 C 32.105 375.529,26.907 370.512,24.593 365.846 C 22.922 362.475,22.894 359.773,22.894 200.864 L 22.894 39.309 24.762 35.853 C 27.777 30.277,34.032 25.134,39.844 23.453 C 41.707 22.914,99.853 22.660,200.432 22.751 L 358.099 22.894 362.851 25.574 M372.090 30.022 C 374.757 33.320,377.519 40.308,377.468 43.629 C 377.415 47.043,377.397 47.022,375.908 41.901 C 374.289 36.333,372.038 31.542,370.632 30.673 C 369.672 30.080,369.442 28.510,370.315 28.510 C 370.619 28.510,371.418 29.190,372.090 30.022 M47.831 37.108 C 44.092 38.000,40.003 41.077,38.216 44.345 C 35.996 48.402,35.415 349.863,37.616 355.683 C 39.277 360.077,43.867 364.311,47.714 364.999 C 49.268 365.277,118.410 365.394,201.363 365.258 L 352.186 365.011 355.237 362.684 C 361.019 358.274,361.224 357.130,361.311 328.890 C 361.399 300.556,361.174 299.297,355.238 294.768 L 352.187 292.441 266.590 292.009 C 182.486 291.584,180.941 291.546,177.970 289.819 C 171.747 286.203,171.925 287.893,171.925 232.397 C 171.925 175.920,171.636 178.343,178.801 174.730 L 182.656 172.786 266.302 172.786 C 356.283 172.786,353.195 172.936,357.394 168.362 C 361.178 164.239,361.208 163.736,361.212 104.882 C 361.216 39.031,361.432 40.339,350.081 37.187 C 346.323 36.143,52.198 36.066,47.831 37.108 M272.354 37.797 C 231.847 37.921,165.562 37.921,125.054 37.797 C 84.546 37.673,117.689 37.571,198.704 37.571 C 279.719 37.571,312.862 37.673,272.354 37.797 M354.024 39.641 C 356.115 40.759,359.402 44.736,359.381 46.121 C 359.373 46.651,358.548 45.806,357.548 44.244 C 355.618 41.230,351.863 38.826,349.287 38.955 C 348.432 38.998,348.956 39.387,350.452 39.821 C 353.863 40.809,358.531 46.021,358.531 48.842 C 358.531 51.244,349.659 52.121,347.473 49.935 C 346.214 48.676,346.085 40.060,347.314 39.300 C 347.797 39.002,347.984 38.421,347.730 38.009 C 347.194 37.142,351.388 38.230,354.024 39.641 M49.937 38.753 C 50.718 39.248,50.982 41.158,50.801 45.003 L 50.540 50.540 44.637 50.797 C 38.831 51.050,38.744 51.022,39.347 49.069 C 40.761 44.488,42.615 42.122,45.963 40.623 C 48.703 39.396,49.119 38.957,47.849 38.631 C 46.828 38.369,46.704 38.181,47.516 38.126 C 48.229 38.079,49.318 38.360,49.937 38.753 M42.460 42.124 C 40.727 43.911,39.141 45.266,38.936 45.135 C 38.448 44.825,44.216 38.877,45.005 38.877 C 45.338 38.877,44.192 40.338,42.460 42.124 M345.572 44.060 L 345.572 49.244 198.704 49.244 L 51.836 49.244 51.836 44.060 L 51.836 38.877 198.704 38.877 L 345.572 38.877 345.572 44.060 M19.006 200.864 C 19.006 353.711,18.994 354.819,17.279 356.371 C 15.551 357.935,15.551 357.880,15.551 200.864 C 15.551 43.847,15.551 43.793,17.279 45.356 C 18.994 46.909,19.006 48.017,19.006 200.864 M382.721 201.296 C 382.721 287.300,382.410 357.667,382.030 357.667 C 379.286 357.667,379.266 356.496,379.266 201.296 C 379.266 46.096,379.286 44.924,382.030 44.924 C 382.410 44.924,382.721 115.292,382.721 201.296 M21.598 200.813 C 21.598 302.079,21.305 354.291,20.734 354.644 C 20.160 354.999,19.870 303.681,19.870 201.347 C 19.870 99.369,20.162 47.516,20.734 47.516 C 21.307 47.516,21.598 99.191,21.598 200.813 M378.402 200.813 C 378.402 302.079,378.108 354.291,377.538 354.644 C 376.963 354.999,376.674 303.681,376.674 201.347 C 376.674 99.369,376.965 47.516,377.538 47.516 C 378.111 47.516,378.402 99.191,378.402 200.813 M345.934 50.632 C 347.160 51.103,347.300 56.702,347.300 105.036 L 347.300 158.915 262.419 159.155 L 177.538 159.395 173.218 161.533 C 167.254 164.484,162.034 170.110,159.855 175.935 C 158.085 180.666,158.054 181.807,158.290 234.009 L 158.531 287.257 160.511 290.965 C 163.192 295.985,168.087 300.715,173.255 303.276 L 177.538 305.400 262.419 305.636 L 347.300 305.872 347.300 328.749 L 347.300 351.625 198.920 351.406 L 50.540 351.188 50.322 201.348 C 50.148 82.047,50.324 51.369,51.185 50.822 C 52.434 50.029,343.873 49.842,345.934 50.632 M49.244 200.864 L 49.244 349.892 44.060 349.892 L 38.877 349.892 38.877 200.864 L 38.877 51.836 44.060 51.836 L 49.244 51.836 49.244 200.864 M359.186 104.752 L 359.409 157.235 353.786 157.235 L 348.164 157.235 348.164 105.112 C 348.164 76.443,348.440 52.712,348.778 52.374 C 349.115 52.037,351.545 51.875,354.177 52.014 L 358.963 52.268 359.186 104.752 M37.797 275.810 C 37.673 316.793,37.571 283.261,37.571 201.296 C 37.571 119.330,37.673 85.799,37.797 126.782 C 37.921 167.765,37.921 234.827,37.797 275.810 M360.855 154.428 C 360.637 155.259,360.460 154.579,360.460 152.916 C 360.460 151.253,360.637 150.572,360.855 151.404 C 361.072 152.235,361.072 153.596,360.855 154.428 M358.531 159.870 C 358.531 164.453,352.895 170.184,348.380 170.191 C 345.871 170.195,345.486 162.310,347.866 159.679 C 350.066 157.248,358.531 157.399,358.531 159.870 M358.914 164.562 C 357.164 168.249,353.676 170.904,349.749 171.537 C 346.903 171.996,346.909 171.986,350.205 170.734 C 354.786 168.995,358.390 165.312,359.123 161.620 C 359.465 159.895,359.877 159.184,360.054 160.009 C 360.229 160.822,359.716 162.870,358.914 164.562 M183.585 165.480 C 183.585 170.504,183.557 170.561,180.799 171.125 C 175.378 172.234,170.822 176.872,169.621 182.505 C 168.895 185.911,158.963 186.256,158.963 182.875 C 158.963 173.695,168.304 163.184,178.604 160.772 C 183.335 159.664,183.585 159.900,183.585 165.480 M345.572 165.320 L 345.572 170.812 340.262 171.367 C 337.341 171.672,301.089 171.828,259.700 171.713 L 184.449 171.504 261.771 171.058 L 339.093 170.612 261.987 170.403 L 184.881 170.194 184.881 165.011 L 184.881 159.827 265.227 159.827 L 345.572 159.827 345.572 165.320 M180.097 172.841 C 176.680 173.835,173.146 177.584,171.572 181.883 C 170.881 183.770,170.289 184.756,170.255 184.074 C 170.033 179.550,176.877 171.864,180.994 172.015 C 182.143 172.057,181.842 172.334,180.097 172.841 M194.425 181.809 C 193.616 182.784,192.937 182.850,191.321 182.114 C 188.907 181.014,186.609 182.376,186.609 184.906 C 186.609 185.971,186.123 186.320,185.037 186.036 C 183.020 185.509,181.089 187.820,181.675 190.060 C 182.013 191.354,181.704 191.793,180.454 191.793 C 178.437 191.793,177.372 194.107,178.538 195.956 C 179.146 196.919,178.948 197.726,177.831 198.843 C 175.382 201.292,177.708 204.597,180.994 203.336 C 182.524 202.749,182.757 198.704,181.260 198.704 C 180.694 198.704,180.986 198.139,181.908 197.448 C 183.375 196.349,183.705 196.349,184.544 197.448 C 185.072 198.139,185.800 198.704,186.162 198.704 C 186.524 198.704,186.407 198.205,185.900 197.595 C 184.432 195.826,186.105 193.755,187.839 195.194 C 189.735 196.767,189.575 197.247,186.559 199.028 C 184.689 200.133,183.995 201.133,184.183 202.454 C 184.549 205.019,187.990 205.477,188.757 203.062 C 189.472 200.807,190.929 201.605,190.929 204.251 C 190.929 205.904,190.566 206.170,188.780 205.829 C 185.146 205.134,184.684 209.295,188.307 210.089 C 189.003 210.242,190.206 211.112,190.980 212.023 C 191.872 213.073,192.934 213.469,193.882 213.106 C 195.879 212.339,195.281 209.712,192.868 208.650 C 191.801 208.181,190.929 207.537,190.929 207.219 C 190.929 206.503,194.270 207.323,194.792 208.168 C 195.464 209.256,200.432 208.063,200.432 206.813 C 200.432 206.155,201.015 205.616,201.728 205.616 C 202.441 205.616,203.024 205.032,203.024 204.320 C 203.024 202.487,200.982 202.712,199.139 204.749 C 197.948 206.065,197.302 206.244,196.413 205.507 C 195.773 204.975,195.224 204.879,195.194 205.294 C 195.163 205.708,194.759 205.096,194.294 203.932 C 193.627 202.261,193.819 201.316,195.213 199.431 C 197.425 196.439,197.430 195.509,195.236 194.812 C 194.279 194.509,193.721 193.894,193.998 193.448 C 194.308 192.946,195.047 192.941,195.932 193.437 C 199.080 195.198,201.856 191.459,199.099 189.170 C 198.209 188.431,198.054 187.777,198.633 187.199 C 199.212 186.620,200.030 186.988,201.099 188.308 C 202.992 190.646,206.030 190.148,206.754 187.380 C 207.416 184.847,204.379 181.966,202.249 183.106 C 201.025 183.761,200.288 183.562,199.111 182.262 C 197.285 180.244,195.839 180.104,194.425 181.809 M199.088 183.075 C 199.923 184.426,198.593 186.609,196.935 186.609 C 195.030 186.609,194.053 185.262,194.713 183.544 C 195.243 182.161,198.319 181.832,199.088 183.075 M192.025 184.233 C 192.638 185.990,191.722 187.473,190.023 187.473 C 188.119 187.473,187.142 186.126,187.801 184.408 C 188.391 182.872,191.506 182.743,192.025 184.233 M205.848 185.097 C 206.504 186.976,205.499 188.337,203.456 188.337 C 201.196 188.337,200.100 186.423,201.536 184.986 C 202.834 183.689,205.380 183.754,205.848 185.097 M343.839 186.183 C 342.883 187.335,342.921 187.783,344.068 188.930 C 345.920 190.783,348.363 189.754,348.009 187.270 C 347.671 184.903,345.394 184.310,343.839 186.183 M169.330 232.397 L 169.330 279.050 164.147 279.050 L 158.963 279.050 158.963 232.397 L 158.963 185.745 164.147 185.745 L 169.330 185.745 169.330 232.397 M170.842 255.940 C 170.707 268.888,170.597 258.294,170.597 232.397 C 170.597 206.501,170.707 195.907,170.842 208.855 C 170.976 221.803,170.976 242.991,170.842 255.940 M346.915 186.684 C 347.805 188.125,345.803 189.777,344.611 188.585 C 343.614 187.588,344.238 185.745,345.572 185.745 C 345.991 185.745,346.596 186.168,346.915 186.684 M186.609 189.242 C 186.609 191.192,185.481 191.969,183.663 191.271 C 182.034 190.646,181.825 187.779,183.369 187.240 C 185.126 186.628,186.609 187.544,186.609 189.242 M194.705 187.118 C 195.753 187.520,195.826 187.954,195.055 189.190 C 194.296 190.404,193.750 190.547,192.605 189.832 C 191.483 189.132,191.365 188.644,192.110 187.793 C 193.290 186.444,193.087 186.497,194.705 187.118 M270.410 189.714 C 270.410 191.243,269.850 192.101,268.647 192.416 C 266.712 192.922,266.796 194.815,268.754 194.819 C 269.679 194.821,269.991 196.195,270.031 200.435 C 270.117 209.611,272.509 213.672,276.409 211.261 C 277.939 210.316,277.435 209.287,275.162 208.717 C 272.020 207.928,271.730 194.091,274.866 194.546 C 275.891 194.695,276.895 194.330,277.098 193.737 C 277.330 193.056,276.640 192.657,275.234 192.657 C 273.330 192.657,273.002 192.276,273.002 190.065 C 273.002 188.337,272.570 187.473,271.706 187.473 C 270.887 187.473,270.410 188.298,270.410 189.714 M189.438 188.862 C 189.727 189.151,189.500 190.148,188.934 191.078 C 188.067 192.503,188.211 193.020,189.849 194.363 C 191.812 195.973,192.505 198.704,190.951 198.704 C 190.488 198.704,189.506 199.870,188.769 201.296 C 187.218 204.295,184.881 204.754,184.881 202.059 C 184.881 200.627,185.275 200.333,186.695 200.705 C 187.692 200.965,188.274 200.945,187.989 200.660 C 187.703 200.374,188.100 199.443,188.872 198.590 C 190.453 196.843,189.956 194.620,187.800 193.793 C 186.907 193.450,185.914 193.849,185.188 194.841 C 184.056 196.390,184.017 196.387,184.017 194.757 C 184.017 193.831,184.795 192.587,185.745 191.993 C 186.695 191.400,187.473 190.334,187.473 189.626 C 187.473 188.311,188.492 187.916,189.438 188.862 M273.971 209.287 C 275.293 210.389,275.437 210.799,274.500 210.799 C 271.922 210.799,271.054 208.313,271.102 201.075 C 271.182 189.132,271.629 187.323,271.900 197.840 C 272.129 206.701,272.353 207.939,273.971 209.287 M199.159 190.103 C 199.466 190.599,199.231 191.590,198.637 192.306 C 197.355 193.851,194.574 191.855,195.629 190.148 C 196.371 188.947,198.429 188.921,199.159 190.103 M193.140 191.012 C 193.462 191.532,193.193 192.490,192.543 193.140 C 191.044 194.638,188.743 193.367,189.480 191.448 C 190.087 189.866,192.271 189.605,193.140 191.012 M208.207 191.361 C 208.207 192.073,208.596 192.657,209.071 192.657 C 209.546 192.657,209.935 192.073,209.935 191.361 C 209.935 190.648,209.546 190.065,209.071 190.065 C 208.596 190.065,208.207 190.648,208.207 191.361 M201.895 192.345 C 201.205 193.035,201.985 194.384,203.075 194.384 C 203.522 194.384,203.888 193.801,203.888 193.089 C 203.888 191.753,202.868 191.372,201.895 192.345 M223.766 192.896 C 219.333 195.162,220.430 200.174,225.945 202.854 C 231.714 205.656,231.291 208.639,225.126 208.639 C 220.656 208.639,218.814 210.199,222.211 211.109 C 231.894 213.703,237.044 205.213,228.304 201.064 C 226.053 199.995,224.081 198.448,223.923 197.626 C 223.519 195.529,227.271 193.892,229.610 195.144 C 231.303 196.050,233.347 194.177,231.712 193.218 C 229.811 192.103,225.648 191.934,223.766 192.896 M255.141 193.863 C 251.977 196.584,252.987 200.166,257.523 202.305 C 264.325 205.514,263.878 209.713,256.837 208.748 C 253.052 208.230,251.378 209.941,254.498 211.139 C 259.230 212.955,265.227 210.542,265.227 206.823 C 265.227 204.511,261.753 200.432,259.784 200.432 C 259.124 200.432,257.921 199.701,257.112 198.807 C 254.893 196.354,257.347 194.124,261.424 194.889 C 264.961 195.553,265.489 193.906,262.147 192.635 C 258.870 191.389,257.798 191.577,255.141 193.863 M283.591 192.663 C 272.446 197.250,280.247 215.459,291.506 211.139 C 294.611 209.947,292.903 208.416,288.964 208.860 C 284.703 209.340,281.641 207.600,281.641 204.699 C 281.641 203.523,282.651 203.058,286.177 202.610 C 292.981 201.747,293.737 201.399,293.737 199.126 C 293.737 194.682,287.829 190.918,283.591 192.663 M300.216 192.533 L 297.624 193.102 297.379 202.383 C 297.171 210.254,297.335 211.663,298.459 211.663 C 299.556 211.663,299.784 210.265,299.784 203.548 C 299.784 195.055,300.095 194.384,304.040 194.384 C 307.239 194.384,308.423 197.145,308.423 204.604 C 308.423 210.303,308.673 211.663,309.719 211.663 C 310.775 211.663,311.015 210.221,311.015 203.866 C 311.015 196.292,311.078 196.046,313.231 195.227 C 317.674 193.538,318.790 195.376,318.790 204.381 C 318.790 213.116,321.252 215.580,321.534 207.127 C 321.934 195.128,319.820 190.898,314.114 192.278 C 310.840 193.069,307.813 193.132,304.968 192.469 C 303.780 192.191,301.641 192.221,300.216 192.533 M328.294 192.527 C 326.331 193.108,326.040 193.655,326.436 196.021 C 326.508 196.446,327.829 196.524,329.374 196.193 C 332.907 195.437,335.205 195.905,335.205 197.379 C 335.205 198.689,333.333 199.568,330.546 199.568 C 325.231 199.568,322.973 206.610,327.214 209.957 C 329.476 211.743,337.561 212.187,339.136 210.612 C 340.583 209.165,339.742 195.945,338.097 194.300 C 336.194 192.397,331.563 191.560,328.294 192.527 M355.076 192.554 L 352.052 193.089 351.807 202.376 L 351.561 211.663 353.750 211.663 C 355.931 211.663,355.940 211.633,355.940 203.888 L 355.940 196.112 358.531 196.112 C 360.720 196.112,361.123 195.776,361.123 193.952 C 361.123 191.652,360.716 191.558,355.076 192.554 M182.991 194.613 C 183.335 196.398,180.841 197.601,179.525 196.285 C 178.209 194.969,179.412 192.475,181.197 192.819 C 182.024 192.978,182.832 193.785,182.991 194.613 M226.173 193.648 C 222.673 194.928,222.164 197.733,224.991 200.165 C 227.608 202.416,226.882 202.869,223.950 200.815 C 220.423 198.345,222.766 192.496,227.190 192.725 C 227.916 192.762,227.458 193.178,226.173 193.648 M235.454 194.521 C 235.801 195.634,237.199 199.451,238.561 203.004 C 241.398 210.405,241.501 211.471,239.785 215.579 C 238.622 218.363,238.645 218.575,240.117 218.575 C 241.727 218.575,241.731 218.565,248.872 199.352 C 251.171 193.167,251.239 192.657,249.766 192.657 C 247.708 192.657,243.346 204.367,244.062 207.972 C 244.323 209.289,243.062 206.483,241.257 201.736 C 238.949 195.662,237.510 193.015,236.400 192.802 C 235.104 192.552,234.935 192.859,235.454 194.521 M262.203 193.579 C 263.530 194.194,263.293 194.267,261.179 193.894 C 255.326 192.860,253.367 198.333,258.636 201.000 C 264.597 204.017,265.942 207.004,262.443 209.454 C 260.256 210.986,256.770 211.189,254.860 209.896 C 253.898 209.245,254.177 209.161,255.940 209.571 C 263.914 211.423,265.908 205.152,258.419 201.774 C 256.517 200.917,254.735 199.626,254.459 198.906 C 252.902 194.849,257.750 191.515,262.203 193.579 M285.529 193.854 C 276.613 197.740,279.351 210.896,288.845 209.788 C 290.518 209.592,291.697 209.740,291.465 210.116 C 290.533 211.624,284.317 210.789,282.092 208.855 C 276.465 203.965,279.727 192.860,286.825 192.745 C 287.538 192.734,286.954 193.233,285.529 193.854 M318.648 194.168 C 320.550 195.786,321.061 199.293,320.506 206.911 C 320.257 210.339,320.092 209.625,319.707 203.456 L 319.222 195.680 316.199 194.170 C 313.841 192.992,313.582 192.659,315.023 192.658 C 316.040 192.657,317.671 193.337,318.648 194.168 M337.651 194.732 C 339.336 196.417,339.328 208.980,337.642 210.050 C 333.770 212.504,325.702 209.809,325.702 206.060 C 325.702 202.593,328.167 200.933,334.341 200.242 C 335.964 200.060,336.429 199.570,336.213 198.272 C 335.764 195.581,334.598 194.871,330.875 195.019 C 328.980 195.095,327.430 194.817,327.430 194.402 C 327.430 192.355,335.536 192.617,337.651 194.732 M343.682 202.158 C 343.950 211.582,343.970 211.663,346.058 211.663 C 348.163 211.663,348.164 211.656,348.164 202.160 L 348.164 192.657 345.788 192.655 L 343.413 192.653 343.682 202.158 M360.259 193.952 C 360.259 194.816,359.395 195.248,357.667 195.248 L 355.076 195.248 355.076 203.024 C 355.076 209.359,354.836 210.799,353.780 210.799 C 352.715 210.799,352.484 209.269,352.484 202.215 L 352.484 193.630 355.292 193.282 C 356.836 193.090,358.585 192.871,359.179 192.795 C 359.773 192.719,360.259 193.240,360.259 193.952 M240.248 201.944 C 241.870 206.577,243.116 210.978,243.018 211.724 C 242.715 214.030,241.013 217.975,240.530 217.492 C 240.278 217.240,240.618 215.725,241.287 214.125 C 242.606 210.968,242.654 211.197,238.149 199.352 C 236.929 196.145,236.238 193.521,236.615 193.521 C 236.991 193.521,238.626 197.311,240.248 201.944 M247.062 201.303 C 245.622 204.863,244.660 206.690,244.925 205.364 C 245.667 201.652,249.063 192.979,249.390 193.960 C 249.550 194.439,248.503 197.744,247.062 201.303 M291.937 196.262 C 293.618 199.242,292.649 201.327,289.660 201.166 L 287.257 201.037 289.633 200.677 C 291.008 200.469,292.009 199.772,292.009 199.022 C 292.009 197.219,290.394 194.384,289.367 194.384 C 288.897 194.384,289.158 195.369,289.946 196.571 C 291.737 199.304,291.522 199.502,286.078 200.147 C 279.914 200.877,280.168 196.292,286.394 194.446 C 289.784 193.440,290.473 193.666,291.937 196.262 M300.432 194.116 C 299.140 194.454,298.894 195.726,298.742 202.871 L 298.565 211.231 298.275 203.524 C 297.946 194.800,298.230 193.479,300.405 193.621 C 301.847 193.715,301.849 193.746,300.432 194.116 M308.251 194.557 C 309.057 195.364,309.518 195.364,310.324 194.557 C 310.894 193.987,311.769 193.532,312.268 193.547 C 312.767 193.561,312.495 193.969,311.663 194.454 C 310.416 195.180,310.125 196.725,310.002 203.283 L 309.853 211.231 309.354 203.599 C 308.949 197.402,308.540 195.738,307.178 194.744 C 306.256 194.071,305.887 193.521,306.358 193.521 C 306.829 193.521,307.680 193.987,308.251 194.557 M347.300 202.160 C 347.300 209.263,347.070 210.799,346.004 210.799 C 344.939 210.799,344.708 209.263,344.708 202.160 C 344.708 195.056,344.939 193.521,346.004 193.521 C 347.070 193.521,347.300 195.056,347.300 202.160 M204.440 194.984 C 203.467 195.957,203.848 196.976,205.184 196.976 C 205.896 196.976,206.479 196.610,206.479 196.163 C 206.479 195.074,205.130 194.294,204.440 194.984 M195.727 196.188 C 196.046 196.704,195.858 197.576,195.310 198.124 C 194.226 199.208,192.365 197.282,193.197 195.938 C 193.800 194.961,195.045 195.084,195.727 196.188 M197.840 196.336 C 197.840 196.935,198.607 197.903,199.544 198.489 C 200.543 199.112,201.041 200.092,200.747 200.856 C 200.429 201.685,200.753 202.160,201.635 202.160 C 203.269 202.160,203.282 202.088,202.161 199.140 C 201.687 197.893,200.910 197.113,200.434 197.407 C 199.958 197.701,199.568 197.336,199.568 196.595 C 199.568 195.854,199.179 195.248,198.704 195.248 C 198.229 195.248,197.840 195.738,197.840 196.336 M210.101 196.177 C 210.271 196.688,210.780 197.106,211.231 197.106 C 211.683 197.106,212.191 196.688,212.361 196.177 C 212.532 195.666,212.023 195.248,211.231 195.248 C 210.439 195.248,209.931 195.666,210.101 196.177 M205.616 199.136 C 205.616 199.849,206.004 200.432,206.479 200.432 C 206.955 200.432,207.343 199.849,207.343 199.136 C 207.343 198.423,206.955 197.840,206.479 197.840 C 206.004 197.840,205.616 198.423,205.616 199.136 M181.135 200.058 C 181.855 201.934,180.027 203.699,178.719 202.391 C 177.613 201.285,178.298 198.704,179.698 198.704 C 180.203 198.704,180.850 199.313,181.135 200.058 M193.052 200.372 C 193.691 201.406,192.065 202.430,190.915 201.719 C 189.948 201.122,190.583 199.568,191.793 199.568 C 192.212 199.568,192.778 199.930,193.052 200.372 M210.799 201.728 C 210.799 202.520,211.217 203.028,211.728 202.858 C 212.239 202.688,212.657 202.179,212.657 201.728 C 212.657 201.276,212.239 200.768,211.728 200.598 C 211.217 200.427,210.799 200.936,210.799 201.728 M330.214 202.641 C 326.481 205.255,328.641 209.071,333.852 209.071 C 335.904 209.071,336.069 208.781,336.069 205.184 C 336.069 200.819,334.060 199.947,330.214 202.641 M230.497 203.197 C 234.503 207.202,227.104 213.163,222.075 209.981 C 221.261 209.466,222.087 209.359,224.443 209.675 C 230.002 210.421,232.495 207.336,229.240 203.740 C 227.676 202.012,228.818 201.518,230.497 203.197 M335.205 205.184 C 335.205 207.588,334.866 208.207,333.548 208.207 C 328.528 208.207,327.360 204.456,331.965 203.126 C 333.510 202.680,334.870 202.281,334.989 202.238 C 335.108 202.195,335.205 203.521,335.205 205.184 M179.162 206.006 C 178.503 207.724,179.479 209.071,181.384 209.071 C 183.082 209.071,183.999 207.588,183.386 205.832 C 182.866 204.342,179.751 204.470,179.162 206.006 M182.289 206.983 C 182.289 208.509,180.430 208.243,179.896 206.641 C 179.708 206.077,180.169 205.616,180.922 205.616 C 181.674 205.616,182.289 206.231,182.289 206.983 M203.888 206.811 C 203.888 207.468,203.069 208.220,202.069 208.481 C 199.867 209.057,200.338 211.231,202.664 211.231 C 203.762 211.231,204.234 210.722,204.066 209.719 C 203.915 208.823,204.355 208.207,205.146 208.207 C 205.879 208.207,206.479 207.624,206.479 206.911 C 206.479 206.199,205.896 205.616,205.184 205.616 C 204.471 205.616,203.888 206.153,203.888 206.811 M209.624 206.215 C 208.651 207.188,209.031 208.207,210.367 208.207 C 211.080 208.207,211.663 207.842,211.663 207.394 C 211.663 206.305,210.314 205.525,209.624 206.215 M190.065 207.775 C 190.065 208.495,189.297 209.071,188.337 209.071 C 187.377 209.071,186.609 208.495,186.609 207.775 C 186.609 207.055,187.377 206.479,188.337 206.479 C 189.297 206.479,190.065 207.055,190.065 207.775 M182.799 210.673 C 181.941 212.061,183.277 214.358,184.774 214.069 C 186.615 213.715,186.592 210.471,184.746 210.115 C 183.959 209.964,183.083 210.215,182.799 210.673 M194.384 210.748 C 194.384 211.915,192.810 212.724,191.779 212.086 C 191.296 211.788,191.124 211.182,191.398 210.739 C 192.046 209.690,194.384 209.697,194.384 210.748 M196.112 211.663 C 196.112 213.085,196.560 213.448,198.056 213.235 C 199.125 213.083,200.000 212.376,200.000 211.663 C 200.000 210.950,199.125 210.243,198.056 210.091 C 196.560 209.879,196.112 210.241,196.112 211.663 M185.745 211.519 C 185.745 212.644,184.718 213.392,183.883 212.876 C 182.989 212.324,183.760 210.799,184.932 210.799 C 185.379 210.799,185.745 211.123,185.745 211.519 M206.215 211.352 C 205.409 212.158,206.383 213.391,207.826 213.391 C 208.511 213.391,209.071 212.808,209.071 212.095 C 209.071 210.794,207.248 210.319,206.215 211.352 M187.854 214.338 C 187.532 214.859,187.801 215.816,188.451 216.466 C 189.949 217.965,192.250 216.693,191.514 214.774 C 190.907 213.192,188.723 212.931,187.854 214.338 M201.026 213.949 C 199.803 215.172,200.495 216.847,202.223 216.847 C 203.431 216.847,203.923 216.377,203.735 215.406 C 203.427 213.816,201.952 213.023,201.026 213.949 M190.763 215.184 C 190.593 215.694,190.084 216.112,189.633 216.112 C 189.181 216.112,188.673 215.694,188.503 215.184 C 188.332 214.673,188.841 214.255,189.633 214.255 C 190.425 214.255,190.933 214.673,190.763 215.184 M194.901 214.890 C 194.617 215.174,194.384 216.148,194.384 217.054 C 194.384 219.084,197.258 218.799,197.657 216.729 C 197.928 215.321,195.854 213.937,194.901 214.890 M233.693 231.472 C 229.661 232.445,227.486 233.884,224.873 237.307 L 222.462 240.465 222.202 258.678 C 221.897 280.036,222.646 282.796,229.771 286.564 L 233.533 288.553 291.577 288.553 L 349.620 288.553 353.428 286.571 C 360.497 282.892,361.233 280.150,360.940 258.592 C 360.644 236.799,359.370 233.811,349.393 231.497 C 345.417 230.575,237.507 230.551,233.693 231.472 M270.257 234.107 C 221.579 234.688,224.626 232.955,224.623 260.057 C 224.621 287.770,218.598 285.407,290.713 285.991 L 347.732 286.453 290.128 286.423 C 225.809 286.390,230.757 286.850,225.971 280.448 C 223.053 276.544,222.821 245.741,225.668 240.237 C 229.363 233.094,228.432 233.233,270.829 233.459 L 307.991 233.657 270.257 234.107 M332.829 233.905 C 328.434 234.062,321.242 234.062,316.847 233.905 C 312.451 233.748,316.048 233.620,324.838 233.620 C 333.629 233.620,337.225 233.748,332.829 233.905 M352.154 234.664 C 353.780 235.435,355.906 237.185,356.879 238.551 C 359.052 241.603,358.139 241.869,355.781 238.871 C 353.433 235.887,351.055 234.717,346.004 234.064 L 341.685 233.505 345.442 233.383 C 347.508 233.316,350.529 233.892,352.154 234.664 M235.853 235.853 C 235.853 236.328,235.322 236.717,234.674 236.717 C 232.744 236.717,228.960 240.155,227.682 243.070 C 226.717 245.271,226.477 245.441,226.420 243.961 C 226.326 241.503,229.485 237.642,232.756 236.217 C 236.033 234.790,235.853 234.811,235.853 235.853 M345.572 235.853 C 345.572 236.420,326.998 236.717,291.577 236.717 C 256.156 236.717,237.581 236.420,237.581 235.853 C 237.581 235.286,256.156 234.989,291.577 234.989 C 326.998 234.989,345.572 235.286,345.572 235.853 M354.636 239.457 C 355.828 240.874,356.772 242.878,356.733 243.911 C 356.674 245.478,356.466 245.339,355.471 243.070 C 354.194 240.155,350.410 236.717,348.480 236.717 C 347.831 236.717,347.300 236.349,347.300 235.898 C 347.300 234.353,352.439 236.846,354.636 239.457 M351.309 238.842 C 354.723 241.234,355.200 244.196,354.914 261.201 L 354.644 277.287 352.248 279.680 L 349.853 282.073 291.577 282.073 L 233.301 282.073 230.905 279.680 L 228.510 277.287 228.239 261.201 C 227.953 244.196,228.431 241.234,231.845 238.842 C 234.548 236.949,348.605 236.949,351.309 238.842 M359.395 259.611 C 359.395 268.821,359.104 276.536,358.747 276.756 C 358.391 276.976,358.099 269.260,358.099 259.610 C 358.099 249.960,358.391 242.245,358.747 242.466 C 359.104 242.686,359.395 250.402,359.395 259.611 M227.214 259.611 C 227.214 267.963,226.889 273.002,226.350 273.002 C 225.813 273.002,225.486 268.155,225.486 260.187 C 225.486 248.929,225.765 246.220,226.926 246.220 C 227.084 246.220,227.214 252.246,227.214 259.611 M357.667 260.094 C 357.667 268.124,357.341 273.002,356.803 273.002 C 356.265 273.002,355.940 267.946,355.940 259.560 C 355.940 250.819,356.242 246.305,356.803 246.652 C 357.317 246.970,357.667 252.421,357.667 260.094 M183.921 268.250 C 181.135 269.764,179.406 273.700,180.177 276.771 C 181.423 281.737,188.220 284.133,192.519 281.122 C 200.495 275.536,192.510 263.582,183.921 268.250 M190.338 269.676 C 195.743 272.521,193.824 280.778,187.757 280.778 C 181.802 280.778,180.021 272.716,185.313 269.715 C 187.512 268.468,188.035 268.464,190.338 269.676 M233.452 282.469 C 235.486 283.372,236.449 284.139,235.594 284.172 C 231.418 284.336,226.300 279.569,226.411 275.618 C 226.463 273.768,226.723 273.999,228.114 277.131 C 229.383 279.987,230.596 281.201,233.452 282.469 M355.545 278.977 C 354.116 281.741,350.201 284.283,347.559 284.163 C 346.622 284.120,347.206 283.574,349.028 282.788 C 353.224 280.977,354.872 279.318,355.619 276.152 C 356.020 274.454,356.382 273.979,356.584 274.888 C 356.762 275.688,356.295 277.528,355.545 278.977 M354.869 283.006 C 353.096 284.632,350.765 285.953,349.689 285.942 C 348.218 285.928,348.626 285.517,351.334 284.288 C 353.315 283.388,355.388 281.808,355.940 280.777 C 356.492 279.746,357.202 279.160,357.518 279.477 C 357.835 279.793,356.643 281.381,354.869 283.006 M169.330 281.244 C 169.330 285.956,175.049 292.252,180.716 293.778 L 184.101 294.690 183.843 299.613 L 183.585 304.536 180.685 304.304 C 172.227 303.628,162.749 295.803,160.268 287.448 C 158.092 280.122,158.200 279.914,164.147 279.914 C 168.238 279.914,169.330 280.194,169.330 281.244 M175.900 289.380 C 177.546 290.826,179.852 292.009,181.024 292.009 C 182.195 292.009,183.153 292.370,183.153 292.812 C 183.153 293.847,178.861 292.632,176.083 290.812 C 173.626 289.202,170.164 283.420,170.263 281.092 C 170.300 280.206,170.910 281.117,171.618 283.116 C 172.326 285.115,174.253 287.934,175.900 289.380 M319.069 284.017 C 304.254 284.149,279.762 284.149,264.641 284.017 C 249.521 283.884,261.641 283.776,291.577 283.776 C 321.512 283.776,333.883 283.884,319.069 284.017 M301.728 293.520 C 280.227 293.649,245.043 293.649,223.542 293.520 C 202.041 293.392,219.633 293.286,262.635 293.286 C 305.637 293.286,323.229 293.392,301.728 293.520 M353.344 294.702 C 356.687 296.581,360.289 301.792,360.221 304.653 C 360.200 305.539,359.641 304.741,358.978 302.880 C 358.314 301.019,356.841 298.565,355.704 297.428 C 354.566 296.290,352.113 294.817,350.252 294.154 C 348.391 293.491,347.593 292.931,348.478 292.910 C 349.364 292.890,351.554 293.696,353.344 294.702 M345.572 299.352 L 345.572 304.968 265.227 304.968 L 184.881 304.968 184.881 299.789 L 184.881 294.610 263.283 294.384 C 306.404 294.261,342.559 294.064,343.629 293.948 C 345.467 293.748,345.572 294.042,345.572 299.352 M352.565 295.938 C 359.761 299.659,360.476 306.695,353.659 306.695 C 347.675 306.695,346.502 305.463,346.464 299.136 C 346.433 294.010,347.626 293.384,352.565 295.938 M359.395 328.726 L 359.395 349.892 353.780 349.892 L 348.164 349.892 348.164 328.726 L 348.164 307.559 353.780 307.559 L 359.395 307.559 359.395 328.726 M43.064 361.029 C 44.360 361.951,46.766 363.126,48.412 363.639 L 51.404 364.573 48.523 364.151 C 43.126 363.360,37.111 356.696,37.213 351.620 C 37.227 350.907,38.020 352.355,38.974 354.838 C 39.957 357.395,41.731 360.079,43.064 361.029 M49.935 351.793 C 51.690 353.547,51.290 362.852,49.460 362.848 C 45.580 362.839,40.460 357.956,39.274 353.132 L 38.690 350.756 43.794 350.756 C 46.612 350.756,49.363 351.220,49.935 351.793 M358.531 352.527 C 358.531 357.110,352.895 362.840,348.380 362.848 C 346.151 362.851,345.413 353.853,347.473 351.793 C 349.413 349.853,358.531 350.458,358.531 352.527 M358.491 357.555 C 356.560 360.990,351.374 364.609,348.478 364.541 C 347.593 364.520,348.423 363.953,350.324 363.281 C 354.497 361.806,358.385 357.705,359.172 353.947 C 359.531 352.235,359.870 351.757,360.066 352.689 C 360.240 353.515,359.531 355.704,358.491 357.555 M345.572 357.495 C 345.572 360.251,345.106 362.972,344.536 363.542 C 343.736 364.342,310.129 364.530,197.451 364.367 L 51.404 364.154 197.840 363.715 L 344.276 363.275 198.056 363.063 L 51.836 362.851 51.836 357.667 L 51.836 352.484 198.704 352.484 L 345.572 352.484 345.572 357.495 M21.598 357.991 C 21.598 361.082,23.952 367.127,26.411 370.351 C 28.687 373.335,28.094 374.372,25.653 371.675 C 22.448 368.134,18.562 355.940,20.638 355.940 C 21.166 355.940,21.598 356.863,21.598 357.991 M380.035 357.353 C 390.443 364.643,366.054 391.420,354.592 385.286 C 351.631 383.701,351.955 383.020,355.925 382.487 C 366.425 381.079,376.972 370.606,377.945 360.621 C 378.348 356.482,378.338 356.462,377.588 359.827 C 376.444 364.959,375.081 368.126,372.640 371.327 C 369.475 375.477,369.226 374.124,372.271 369.322 C 373.700 367.070,375.302 363.137,375.832 360.583 C 376.894 355.469,377.109 355.304,380.035 357.353 M22.041 366.862 C 25.761 374.965,32.909 380.846,40.821 382.313 C 45.522 383.185,45.474 386.177,40.759 386.177 C 29.654 386.177,17.966 375.649,16.002 363.877 C 15.132 358.661,18.107 354.715,19.288 359.519 C 19.680 361.114,20.919 364.418,22.041 366.862 M33.339 376.635 C 35.553 378.039,39.552 379.677,42.225 380.275 C 46.081 381.138,46.588 381.426,44.680 381.670 C 41.236 382.111,34.519 379.659,31.052 376.695 C 27.220 373.419,28.227 373.393,33.339 376.635 M368.788 375.515 C 366.901 377.795,357.523 381.859,354.212 381.830 C 350.638 381.800,352.099 380.656,356.803 379.802 C 358.467 379.500,361.771 378.109,364.147 376.711 C 369.070 373.814,370.501 373.445,368.788 375.515 M275.446 381.641 C 233.789 381.765,165.365 381.765,123.395 381.641 C 81.424 381.517,115.508 381.416,199.136 381.416 C 282.765 381.416,317.104 381.517,275.446 381.641 M255.121 384.406 C 254.467 386.907,97.625 386.735,97.624 384.233 C 97.624 382.804,101.960 382.721,176.593 382.721 C 254.465 382.721,255.556 382.745,255.121 384.406 M352.075 384.475 L 353.662 386.228 341.636 385.987 C 330.983 385.773,329.578 385.573,329.321 384.233 C 328.844 381.749,349.809 381.971,352.075 384.475 " stroke="none" fill="#000000" fill-rule="evenodd"></path></g></svg>